<svg width="234" height="120" viewBox="0 0 234 120" fill="none" xmlns="http://www.w3.org/2000/svg" class="icon">
    <path fill-rule="evenodd" clip-rule="evenodd" d="M204.093 0.898163C201.415 2.31001 200.171 4.55487 200.171 7.97433C200.171 11.3345 201.176 13.2047 203.764 14.6567C207.856 16.952 212.046 15.9847 214.458 12.188C216.545 8.90322 216.244 5.2541 213.656 2.4924C211.248 -0.0784439 207.22 -0.750028 204.093 0.898163ZM226.618 7.31478C218.489 11.6881 211.041 19.6459 208.606 26.5593C207.878 28.6276 207.745 29.75 207.975 31.8932L208.266 34.6081L204.33 38.0565C197.208 44.2961 193.144 50.327 192.69 55.3344C192.49 57.5289 192.637 58.2946 193.656 60.3726C194.964 63.0411 196.274 64.2068 201.732 67.5567C206.496 70.4808 208.397 72.2707 209.818 75.1702C210.886 77.3478 210.984 77.9641 210.807 81.3309C210.647 84.3811 210.351 85.595 209.207 87.9023C206.552 93.2522 201.991 97.3704 197.052 98.8764C194.885 99.5373 194.743 99.6474 195.879 99.787C198.131 100.063 203.454 97.0583 207.089 93.4609C213.36 87.2543 218.041 78.2334 218.041 72.3546C218.041 71.5474 218.259 70.8874 218.527 70.8874C219.423 70.8874 224.68 65.4648 226.899 62.2518C231.44 55.6747 233.575 49.7365 233.048 45.1514C232.518 40.5506 230.532 37.632 225.292 33.7518C219.518 29.4766 217.633 26.714 217.251 21.9666C216.941 18.1096 217.928 15.7011 221.124 12.5211C222.508 11.1436 224.994 9.14046 226.649 8.06931C229.215 6.4073 230.058 5.74374 229.545 5.79056C229.483 5.79591 228.166 6.48221 226.618 7.31478ZM194.117 25.5831C193.368 25.9087 192.231 26.797 191.59 27.5569C188.027 31.7839 191.037 37.8879 196.685 37.8879C200.791 37.8879 203.293 35.5075 203.296 31.5993C203.3 26.8715 198.456 23.6964 194.117 25.5831ZM33.8278 30.6044C33.6638 30.7676 33.5298 34.5902 33.5298 39.0987V47.2955L31.5046 45.9046C27.7166 43.3034 25.7736 42.7014 21.0728 42.6729C15.3704 42.6381 12.6456 43.6673 8.70969 47.3423C2.25716 53.3674 0.567078 62.1698 4.3605 69.9956C5.95498 73.2844 9.76047 76.9237 13.3984 78.6374C15.9936 79.8597 16.7907 80.0185 20.3504 80.0234C24.8412 80.0296 27.6138 79.2747 31.0235 77.1163C32.1734 76.3885 33.1961 75.7928 33.2961 75.7928C33.3967 75.7928 33.5401 76.6459 33.616 77.688L33.7532 79.5833L36.5454 79.7161L39.3376 79.8486V55.078V30.307H36.7317C35.2981 30.307 33.9913 30.4407 33.8278 30.6044ZM46.6891 31.4018C46.0859 32.0038 45.5923 32.922 45.5923 33.4424C45.5923 34.7133 47.9458 36.9961 49.2561 36.9961C51.6744 36.9961 53.1746 34.6272 52.2664 32.2423C51.6713 30.6802 51.1128 30.3226 49.2579 30.3137C48.284 30.3092 47.4141 30.6775 46.6891 31.4018ZM210.622 37.331C211.455 38.2509 213.914 39.9919 216.088 41.1999C223.489 45.3137 226.348 49.6416 225.983 56.1804C225.853 58.5042 225.451 60.2839 224.673 61.9776C223.41 64.7299 219.114 70.1298 218.381 69.8859C218.118 69.7985 217.658 68.899 217.359 67.8876C216.494 64.9645 215.04 63.0064 212.082 60.7825C207.632 57.4357 204.166 53.8784 203.029 51.4891C201.652 48.6007 201.603 45.1438 202.899 42.4722C203.86 40.4891 207.977 35.6582 208.705 35.6582C208.927 35.6582 209.789 36.411 210.622 37.331ZM73.5146 42.6309C73.0232 42.7571 71.8858 43.0492 70.9869 43.2793C70.0885 43.509 68.3291 44.4004 67.0778 45.2593L64.8029 46.8214V44.8076V42.7933H61.8989H58.995V61.2997V79.8062H61.8766H64.7586L64.5076 73.0057C64.1895 64.3955 64.8288 57.2586 66.1476 54.7021C68.2992 50.5303 71.7741 48.1642 75.7484 48.1642C79.6839 48.1642 83.9406 50.805 85.7969 54.3979C87.03 56.7846 87.3012 59.5369 87.3342 69.9956L87.3641 79.5833L90.189 79.717L93.0138 79.8504L92.8695 67.8997L92.7252 55.9485L91.2952 52.9344C89.4224 48.9891 86.0618 45.4618 82.7692 43.987C80.2535 42.8602 75.3906 42.1475 73.5146 42.6309ZM107.004 42.7723C104.092 43.2205 102.363 44.1378 100.554 46.194C98.5487 48.4736 97.863 50.3234 97.863 53.4526C97.863 59.1334 100.124 61.5058 107.697 63.7711C111.817 65.0033 114.195 66.1614 114.561 67.1143C114.714 67.513 114.84 68.6404 114.84 69.6205C114.84 72.0656 113.129 73.7624 110.224 74.1972C106.87 74.6993 104.473 73.1599 103.478 69.8627C103.272 69.1822 102.812 69.0809 100.438 69.1938L97.6396 69.3267L97.7968 70.6578C98.2427 74.4255 101.63 78.3141 105.617 79.6359C115.11 82.7833 124.152 73.2117 119.76 64.6653C118.256 61.7386 115.458 59.9396 110.356 58.6201C105.23 57.2943 103.671 56.0368 103.671 53.2296C103.671 47.3686 113.266 46.3059 114.784 51.9988C115.11 53.2202 115.248 53.2782 118.102 53.4044L121.08 53.5364L120.803 52.0666C120.357 49.6991 119.519 47.9697 117.954 46.1904C115.307 43.1821 111.687 42.0521 107.004 42.7723ZM138.965 42.837C133.585 43.8858 128.316 48.0772 125.706 53.3852C124.535 55.7647 124.445 56.332 124.445 61.2997C124.445 66.3094 124.529 66.8218 125.753 69.3267C127.617 73.1421 132.167 77.5783 135.614 78.9411C139.307 80.4011 145.637 80.4234 149.24 78.9884C154.25 76.9928 158.053 73.1938 160.028 68.2118C161.423 64.6929 161.474 57.2756 160.123 54.3877C156.023 45.6227 147.775 41.1197 138.965 42.837ZM174.482 42.5422C174.236 42.6399 173.289 42.8445 172.377 42.9966C170.108 43.3748 166.083 47.0729 165.077 49.704C164.505 51.1979 164.4 52.3016 164.643 54.2579C165.336 59.8397 167.135 61.5374 174.93 63.9665C177.693 64.8271 180.2 65.8278 180.501 66.1899C181.495 67.3864 181.844 70.046 181.207 71.5697C180.61 72.9949 177.998 74.455 176.046 74.455C173.279 74.455 170.238 72.0032 170.238 69.7735C170.238 69.1826 169.761 69.0836 167.446 69.1938L164.653 69.3267L164.748 71.3169C164.93 75.1916 168.806 78.8269 173.887 79.891C180.629 81.3024 186.694 76.966 187.502 70.1561C187.833 67.3659 187.135 65.0925 185.309 63.0166C183.627 61.1049 180.997 59.7532 176.024 58.2468C171.722 56.9434 170.238 55.7509 170.238 53.5997C170.238 50.6971 171.791 48.9258 174.834 48.3559C177.85 47.7909 180.979 49.5889 181.645 52.2695C181.939 53.4503 182.058 53.4958 184.856 53.4958H187.761L187.45 51.8235C186.797 48.3064 184.346 45.0234 181.092 43.3039C180.087 42.7728 175.29 42.2198 174.482 42.5422ZM46.4858 61.2997V79.8062H49.1663H51.8469V61.2997V42.7933H49.1663H46.4858V61.2997ZM26.2235 49.4016C30.7532 51.7085 33.104 55.305 33.4337 60.4319C33.8005 66.1342 31.6087 70.2337 26.7654 72.9053C23.408 74.7573 19.2451 74.785 15.5639 72.9807C4.58879 67.6013 6.0345 52.4322 17.8933 48.5347C19.7446 47.9265 24.2457 48.3947 26.2235 49.4016ZM146.678 48.8469C151.238 50.3979 154.978 55.3598 155.383 60.3976C155.675 64.0222 154.676 67.0488 152.299 69.744C148.789 73.7245 144.805 75.0802 139.717 74.026C137.591 73.5854 136.711 73.0846 134.543 71.081C131.036 67.8403 129.879 65.1843 130.106 60.8895C130.576 51.9573 138.626 46.1079 146.678 48.8469ZM25.8773 101.446C21.9409 102.688 18.823 107.627 19.4288 111.66C19.8246 114.295 22.1254 117.637 24.3109 118.754C28.3554 120.819 33.1581 119.997 35.9293 116.765C38.8444 113.366 39.121 108.951 36.6616 105.081C34.4769 101.643 30.0174 100.139 25.8773 101.446ZM221.493 101.334C215.938 103.135 213.088 109.752 215.689 114.812C216.829 117.031 217.738 117.862 220.283 119.015C225.374 121.32 231.161 118.921 232.99 113.747C233.368 112.677 233.677 111.225 233.677 110.52V109.238H228.763H223.849V110.353C223.849 111.451 223.905 111.468 227.471 111.468H231.094L230.792 112.694C229.464 118.084 221.833 119.162 218.318 114.455C217.011 112.704 217.008 108.455 218.313 106.697C221.368 102.581 226.469 102.292 229.523 106.062C230.161 106.849 230.634 107.042 231.36 106.812C232.704 106.386 232.585 105.54 230.95 103.908C228.281 101.244 224.743 100.281 221.493 101.334ZM0.916443 110.576V119.941H2.03334C3.14264 119.941 3.15023 119.913 3.17257 115.816L3.19491 111.691L7.09511 115.816C10.1563 119.053 11.2571 119.941 12.2105 119.941C12.8788 119.941 13.4257 119.703 13.4257 119.412C13.4257 119.122 11.7168 117.141 9.62823 115.01C7.53963 112.88 5.83078 110.911 5.83078 110.636C5.83078 110.361 7.28811 108.509 9.06978 106.52C13.8407 101.193 13.83 101.211 12.1055 101.211C10.5941 101.211 10.2389 101.502 5.97553 106.229C4.70361 107.639 3.5474 108.792 3.40667 108.792C3.2655 108.792 3.15023 107.087 3.15023 105.002C3.15023 101.256 3.13728 101.211 2.03334 101.211H0.916443V110.576ZM44.3324 102.215C44.4593 103.103 44.7684 103.233 47.0442 103.352L49.6131 103.486V111.713V119.941H50.73H51.8469V111.691V103.441H54.304C56.6272 103.441 56.7612 103.38 56.7612 102.326V101.211H50.4753C44.2127 101.211 44.1903 101.215 44.3324 102.215ZM64.0094 110.019C62.2309 114.863 60.7776 119.09 60.7789 119.413C60.7811 119.786 61.2158 119.949 61.9762 119.859C63.0283 119.735 63.2991 119.331 64.2538 116.466L65.3372 113.213L68.309 113.344L71.2808 113.475L72.391 116.708C73.4244 119.717 73.5906 119.941 74.7888 119.941C76.4012 119.941 76.4798 120.315 72.5988 109.573C69.7266 101.623 69.5206 101.211 68.4104 101.211C67.2993 101.211 67.0844 101.642 64.0094 110.019ZM95.7319 110.465L95.8525 119.718L98.9799 119.859C100.7 119.937 102.846 119.782 103.749 119.517C107.449 118.427 108.865 114.21 106.634 110.929C105.697 109.551 105.645 109.252 106.172 108.303C107.522 105.87 106.458 102.538 104.064 101.705C103.283 101.434 101.062 101.211 99.1273 101.211H95.6109L95.7319 110.465ZM119.394 102.438C119.149 103.112 117.939 106.473 116.707 109.907C115.475 113.341 114.157 117.003 113.78 118.046L113.093 119.941H114.306C115.408 119.941 115.626 119.644 116.678 116.708L117.836 113.475H120.88H123.924L125.004 116.708C126.009 119.72 126.171 119.941 127.365 119.941H128.646L128.068 118.046C127.75 117.003 126.342 113.04 124.94 109.238C123.538 105.437 122.307 102.076 122.204 101.769C122.1 101.462 121.527 101.211 120.929 101.211C120.149 101.211 119.715 101.558 119.394 102.438ZM134.6 110.434C134.72 119.681 134.725 119.718 135.726 119.86C136.73 120.003 136.731 119.997 136.731 113.257C136.731 109.271 136.899 106.613 137.141 106.763C137.367 106.902 138.899 109.573 140.547 112.698C143.88 119.02 144.539 119.941 145.735 119.941C146.51 119.941 146.56 119.381 146.56 110.576V101.211H145.455H144.35L144.226 107.566L144.102 113.921L140.528 107.677C137.413 102.235 136.796 101.416 135.717 101.292L134.479 101.15L134.6 110.434ZM154.154 110.576V119.941H157.084C161.485 119.941 163.816 119.195 166.014 117.085C169.064 114.157 169.678 109.818 167.613 105.781C165.863 102.357 163.443 101.211 157.966 101.211H154.154V110.576ZM175.689 108.012C175.899 115.734 176.423 117.584 178.811 119.037C181.735 120.817 185.915 119.76 187.416 116.861C187.957 115.818 188.108 113.958 188.108 108.369V101.211H186.991H185.874V108.098C185.874 114.701 185.831 115.036 184.815 116.214C183.446 117.803 180.965 117.914 179.498 116.451C178.566 115.522 178.494 115.009 178.36 108.335L178.218 101.211H176.861H175.503L175.689 108.012ZM195.703 110.605V120L196.932 119.859L198.16 119.718L198.384 113.475L198.607 107.231L202.006 113.475C204.928 118.841 205.572 119.737 206.586 119.859L207.765 120V110.605V101.211H206.425H205.085L205.083 107.566L205.08 113.921L202.13 108.792C200.507 105.972 198.98 103.112 198.737 102.438C198.394 101.483 198.009 101.211 196.999 101.211H195.703V110.605ZM32.6921 104.529C34.8821 106.014 35.9222 108.328 35.6532 111.118C35.2766 115.031 32.6162 117.501 28.8174 117.465C26.8181 117.445 26.1185 117.21 24.7188 116.084C21.8118 113.745 21.2073 109.646 23.2771 106.303C25.0838 103.384 29.7176 102.511 32.6921 104.529ZM102.971 103.955C105.209 104.972 104.817 107.414 102.273 108.3C100.434 108.939 99.0679 108.925 98.3991 108.257C97.8339 107.693 97.6521 104.246 98.1609 103.738C98.6421 103.258 101.746 103.397 102.971 103.955ZM162.66 104.444C165.137 105.691 166.215 107.67 166.216 110.969C166.217 113.208 166.087 113.499 164.266 115.317C162.386 117.194 162.213 117.265 159.575 117.265H156.835V110.353V103.441H158.751C159.849 103.441 161.517 103.869 162.66 104.444ZM69.5363 108.371L70.4981 111.022H68.3613H66.224L67.164 108.136C67.6813 106.549 68.2098 105.355 68.3394 105.485C68.469 105.614 69.0073 106.913 69.5363 108.371ZM122.152 108.537C122.553 109.746 122.881 110.799 122.881 110.878C122.881 110.957 121.977 111.022 120.871 111.022C119.765 111.022 118.861 110.929 118.861 110.816C118.861 109.939 120.816 105.668 121.083 105.964C121.27 106.171 121.751 107.329 122.152 108.537ZM104.532 112.197C105.041 112.843 105.458 113.719 105.458 114.144C105.458 114.568 105.041 115.444 104.532 116.09C103.703 117.142 103.304 117.265 100.734 117.265H97.863V114.144V111.022H100.734C103.304 111.022 103.703 111.145 104.532 112.197Z" fill="white"/>
</svg>
