<svg width="100%" height="100%" viewBox="0 0 621 397" fill="none" xmlns="http://www.w3.org/2000/svg">
    <g opacity="0.54">
        <path opacity="0.54"
              d="M651.14 166.61C664.24 183.88 656.22 210.56 639.33 224.13C622.44 237.7 599.69 241.16 578.05 242.39C556.41 243.63 534.16 243.25 513.88 250.88C471.91 266.68 449.63 311.58 432.48 353.02C415.33 394.46 396.25 439.9 356.28 460.24C324.94 476.19 287.65 472.88 253.17 479.78C192.98 491.82 140.87 538.12 121.85 596.49"
              stroke="url(#paint0_linear)" stroke-width="0.8669" stroke-miterlimit="10"/>
        <path opacity="0.54"
              d="M648.75 161.27C661.85 178.51 654.01 205.13 637.3 218.85C635.81 220.08 634.26 221.22 632.68 222.3C616.54 233.22 596.03 236.41 576.4 237.75C572.61 238.01 568.8 238.22 564.99 238.43C547.1 239.41 529.09 240.43 512.43 246.8C507.03 248.87 501.95 251.41 497.17 254.37C464.91 274.32 446.23 313.02 431.6 349.18C430.54 351.81 429.47 354.45 428.39 357.1C412.4 396.33 393.74 436.99 357.52 457.17C347.16 462.94 336.15 466.9 324.4 469.36C310.53 472.27 295.94 473.08 281.63 474.03C271.86 474.68 262.17 475.41 252.64 476.92C248.16 477.63 243.71 478.53 239.3 479.63C211.22 486.62 184.95 501.76 163.89 522.09C142.78 542.47 126.79 567.96 117.95 595.94"
              stroke="url(#paint1_linear)" stroke-width="0.8669" stroke-miterlimit="10"/>
        <path opacity="0.54"
              d="M646.37 155.93C659.48 173.15 651.82 199.7 635.29 213.57C633.81 214.81 632.28 215.97 630.71 217.06C614.72 228.12 594.32 231.54 574.75 233.11C570.97 233.41 567.18 233.66 563.38 233.91C545.55 235.08 527.58 236.26 510.98 242.71C505.6 244.8 500.53 247.36 495.76 250.34C463.57 270.42 445.04 309.11 430.71 345.33C429.67 347.96 428.62 350.61 427.57 353.26C411.95 392.54 393.75 432.84 358.73 454.08C348.5 460.29 337.66 465.02 325.67 467.81C311.5 471.11 296.37 471.69 281.73 472.2C271.74 472.55 261.86 472.89 252.11 474.05C247.52 474.6 242.97 475.34 238.43 476.31C209.54 482.47 182.14 497.92 160.56 518.96C138.93 540.04 122.91 566.53 114.07 595.4"
              stroke="url(#paint2_linear)" stroke-width="0.8669" stroke-miterlimit="10"/>
        <path opacity="0.54"
              d="M643.98 150.58C657.09 167.77 649.62 194.26 633.26 208.27C631.8 209.52 630.29 210.7 628.73 211.8C612.88 223.01 592.6 226.66 573.09 228.45C569.33 228.79 565.54 229.09 561.76 229.38C543.99 230.74 526.07 232.08 509.52 238.61C504.16 240.72 499.11 243.3 494.35 246.29C462.24 266.49 443.85 305.17 429.82 341.46C428.8 344.1 427.78 346.75 426.75 349.4C411.5 388.74 393.75 428.71 359.95 450.98C349.84 457.64 339.18 463.12 326.94 466.24C312.47 469.94 296.8 470.28 281.83 470.34C271.61 470.39 261.55 470.33 251.58 471.15C246.89 471.53 242.22 472.12 237.56 472.96C207.86 478.29 179.33 494.04 157.23 515.79C135.08 537.58 119.03 565.06 110.18 594.82"
              stroke="url(#paint3_linear)" stroke-width="0.8669" stroke-miterlimit="10"/>
        <path opacity="0.54"
              d="M641.59 145.24C654.7 162.41 647.41 188.83 631.24 202.99C629.79 204.26 628.3 205.44 626.76 206.56C611.06 217.92 590.89 221.79 571.44 223.8C567.69 224.19 563.92 224.52 560.15 224.85C542.44 226.4 524.56 227.91 508.06 234.51C502.72 236.65 497.68 239.24 492.94 242.25C460.9 262.57 442.67 301.25 428.92 337.6C427.92 340.24 426.92 342.9 425.92 345.56C411.04 384.95 393.75 424.66 361.16 447.89C351.18 455.01 340.68 461.24 328.2 464.68C313.42 468.78 297.22 468.88 281.92 468.5C271.48 468.24 261.23 467.8 251.03 468.27C246.24 468.49 241.45 468.93 236.66 469.63C206.15 474.12 176.49 490.19 153.87 512.64C131.2 535.13 115.12 563.61 106.26 594.26"
              stroke="url(#paint4_linear)" stroke-width="0.8669" stroke-miterlimit="10"/>
        <path opacity="0.54"
              d="M639.2 139.9C652.32 157.04 645.21 183.41 629.22 197.71C627.79 198.99 626.31 200.19 624.78 201.32C609.23 212.83 589.17 216.92 569.78 219.16C566.04 219.59 562.28 219.96 558.52 220.33C540.87 222.07 523.03 223.74 506.59 230.42C501.27 232.58 496.25 235.2 491.51 238.22C459.54 258.67 441.46 297.33 428.01 333.75C427.03 336.4 426.06 339.05 425.08 341.72C410.57 381.16 393.75 420.66 362.36 444.81C352.49 452.4 342.18 459.36 329.46 463.14C314.38 467.63 297.64 467.5 282 466.68C271.33 466.12 260.89 465.29 250.48 465.41C245.58 465.47 240.69 465.75 235.77 466.32C204.45 469.98 173.66 486.35 150.52 509.51C127.34 532.71 111.22 562.18 102.35 593.72"
              stroke="url(#paint5_linear)" stroke-width="0.8669" stroke-miterlimit="10"/>
        <path opacity="0.54"
              d="M636.82 134.56C649.94 151.68 643.02 177.98 627.2 192.43C625.79 193.72 624.32 194.94 622.81 196.08C607.4 207.73 587.46 212.06 568.14 214.51C564.41 214.98 560.67 215.4 556.92 215.81C539.33 217.73 521.54 219.57 505.15 226.33C499.85 228.52 494.84 231.15 490.12 234.19C458.22 254.76 440.29 293.42 427.14 329.9C426.18 332.55 425.23 335.21 424.28 337.88C410.14 377.37 393.79 416.71 363.6 441.72C353.85 449.79 343.72 457.48 330.75 461.58C315.37 466.47 298.09 466.1 282.12 464.83C271.23 463.97 260.6 462.75 249.97 462.52C244.97 462.41 239.96 462.54 234.91 462.98C202.78 465.81 170.86 482.49 147.2 506.35C123.5 530.25 107.35 560.72 98.47 593.15"
              stroke="url(#paint6_linear)" stroke-width="0.8669" stroke-miterlimit="10"/>
        <path opacity="0.54"
              d="M634.43 129.21C647.56 146.3 640.81 172.54 625.18 187.13C623.78 188.43 622.33 189.66 620.83 190.82C605.57 202.62 585.74 207.17 566.48 209.85C562.77 210.36 559.03 210.82 555.3 211.27C537.76 213.38 520.02 215.39 503.69 222.22C498.41 224.43 493.41 227.08 488.71 230.14C456.88 250.83 439.1 289.48 426.25 326.03C425.32 328.69 424.39 331.35 423.46 334.02C409.69 373.56 393.84 412.79 364.82 438.62C355.19 447.19 345.24 455.58 332.02 460.02C316.34 465.31 298.52 464.7 282.22 462.99C271.1 461.83 260.29 460.22 249.43 459.64C244.32 459.37 239.21 459.34 234.03 459.65C201.09 461.64 168.04 478.63 143.86 503.2C119.64 527.81 103.46 559.27 94.58 592.59"
              stroke="url(#paint7_linear)" stroke-width="0.8669" stroke-miterlimit="10"/>
        <path opacity="0.54"
              d="M632.04 123.87C645.17 140.93 638.61 167.11 623.15 181.85C621.77 183.17 620.33 184.41 618.85 185.58C603.73 197.53 584.03 202.31 564.82 205.21C561.12 205.77 557.4 206.27 553.68 206.76C536.2 209.06 518.5 211.23 502.23 218.14C496.96 220.37 491.99 223.04 487.29 226.11C455.54 246.93 437.9 285.57 425.35 322.18C424.44 324.84 423.53 327.51 422.63 330.19C409.24 369.78 393.89 408.93 366.03 435.54C356.52 444.62 346.74 453.71 333.29 458.47C317.31 464.15 298.95 463.31 282.32 461.16C270.98 459.7 259.98 457.69 248.9 456.76C243.69 456.33 238.46 456.14 233.16 456.32C199.41 457.48 165.24 474.78 140.53 500.05C115.79 525.36 99.5801 557.83 90.6901 592.03"
              stroke="url(#paint8_linear)" stroke-width="0.8669" stroke-miterlimit="10"/>
        <path opacity="0.54"
              d="M629.65 118.53C642.79 135.57 636.4 161.68 621.13 176.57C619.76 177.9 618.34 179.16 616.88 180.34C601.91 192.43 582.32 197.44 563.17 200.56C559.48 201.16 555.77 201.7 552.06 202.23C534.64 204.72 516.99 207.05 500.77 214.04C495.52 216.3 490.56 218.98 485.88 222.07C454.2 243.01 436.71 281.64 424.45 318.32C423.56 320.98 422.68 323.66 421.8 326.34C408.78 365.98 393.96 405.1 367.24 432.44C357.86 442.04 348.25 451.82 334.55 456.91C318.27 462.99 299.37 461.92 282.4 459.32C270.83 457.55 259.65 455.16 248.34 453.88C243.03 453.28 237.68 452.94 232.25 452.99C197.69 453.31 162.39 470.92 137.16 496.9C111.9 522.91 95.65 556.38 86.76 591.47"
              stroke="url(#paint9_linear)" stroke-width="0.8669" stroke-miterlimit="10"/>
        <path opacity="0.54"
              d="M627.27 113.19C640.41 130.2 634.21 156.25 619.12 171.28C617.77 172.62 616.37 173.89 614.91 175.09C600.08 187.33 580.61 192.57 561.52 195.91C557.85 196.55 554.15 197.13 550.45 197.7C533.09 200.37 515.48 202.88 499.32 209.94C494.09 212.22 489.15 214.92 484.48 218.03C452.87 239.09 435.53 277.71 423.57 314.46C422.7 317.13 421.84 319.81 420.99 322.49C408.34 362.18 394.07 401.31 368.47 429.35C359.22 439.48 349.78 449.93 335.83 455.35C319.25 461.83 299.81 460.52 282.51 457.47C270.71 455.4 259.35 452.62 247.82 450.99C242.4 450.23 236.95 449.73 231.39 449.65C196.02 449.14 159.59 467.06 133.84 493.75C108.06 520.47 91.78 554.93 82.88 590.91"
              stroke="url(#paint10_linear)" stroke-width="0.8669" stroke-miterlimit="10"/>
        <path opacity="0.54"
              d="M624.88 107.84C638.03 124.83 632.01 150.82 617.09 165.99C615.76 167.35 614.37 168.63 612.93 169.84C598.25 182.23 578.89 187.69 559.87 191.25C556.21 191.93 552.52 192.56 548.84 193.17C531.54 196.03 513.97 198.7 497.86 205.84C492.65 208.15 487.72 210.86 483.06 213.99C451.52 235.18 434.34 273.79 422.67 310.6C421.82 313.27 420.99 315.96 420.16 318.65C407.88 358.39 394.19 397.55 369.68 426.26C360.57 436.93 351.29 448.05 337.1 453.8C320.22 460.67 300.24 459.13 282.61 455.64C270.59 453.27 259.04 450.1 247.29 448.12C241.77 447.19 236.2 446.54 230.51 446.33C194.33 444.99 156.77 463.22 130.5 490.61C104.2 518.03 87.89 553.49 78.98 590.36"
              stroke="url(#paint11_linear)" stroke-width="0.8669" stroke-miterlimit="10"/>
        <path opacity="0.54"
              d="M622.49 102.5C635.64 119.46 629.8 145.39 615.07 160.71C613.75 162.08 612.38 163.38 610.95 164.61C596.42 177.15 577.17 182.84 558.21 186.62C554.56 187.35 550.89 188.01 547.22 188.66C529.98 191.71 512.46 194.54 496.4 201.76C491.21 204.09 486.29 206.83 481.65 209.97C450.18 231.28 433.15 269.88 421.78 306.76C420.95 309.44 420.14 312.13 419.34 314.82C407.43 354.62 394.35 393.84 370.9 423.19C361.93 434.41 352.8 446.18 338.37 452.26C321.19 459.53 300.67 457.75 282.7 453.82C270.45 451.15 258.71 447.58 246.74 445.26C241.11 444.17 235.43 443.36 229.62 443.02C192.63 440.84 153.94 459.38 127.15 487.48C100.33 515.61 83.99 552.06 75.08 589.82"
              stroke="url(#paint12_linear)" stroke-width="0.8669" stroke-miterlimit="10"/>
        <path opacity="0.54"
              d="M620.1 97.16C633.26 114.1 627.6 139.96 613.04 155.43C611.74 156.81 610.38 158.12 608.97 159.37C594.58 172.05 575.45 177.97 556.55 181.97C552.91 182.74 549.26 183.45 545.6 184.13C528.42 187.37 510.94 190.37 494.94 197.66C489.77 200.01 484.87 202.77 480.24 205.93C448.85 227.36 431.96 265.96 420.89 302.9C420.09 305.58 419.3 308.28 418.52 310.97C406.98 350.82 394.53 390.12 372.11 420.09C363.3 431.87 354.31 444.29 339.63 450.7C322.15 458.37 301.09 456.35 282.79 451.97C270.32 448.99 258.39 445.04 246.2 442.37C240.47 441.12 234.68 440.15 228.74 439.68C190.94 436.67 151.12 455.52 123.81 484.32C96.4701 513.15 80.1001 550.6 71.1801 589.25"
              stroke="url(#paint13_linear)" stroke-width="0.8669" stroke-miterlimit="10"/>
        <path opacity="0.54"
              d="M617.72 91.82C630.88 108.73 625.41 134.53 611.03 150.14C609.75 151.53 608.4 152.86 607.01 154.12C592.77 166.95 573.75 173.1 554.91 177.32C551.29 178.13 547.64 178.88 543.99 179.61C526.86 183.03 509.43 186.2 493.49 193.57C488.34 195.95 483.45 198.72 478.83 201.89C447.51 223.44 430.77 262.03 419.99 299.04C419.21 301.73 418.44 304.43 417.69 307.12C406.52 347.02 394.72 386.43 373.32 417C364.67 429.35 355.82 442.4 340.9 449.14C323.12 457.2 301.53 454.95 282.89 450.13C270.19 446.85 258.08 442.51 245.66 439.49C239.82 438.07 233.92 436.96 227.85 436.35C189.24 432.51 148.29 451.66 120.46 481.17C92.6 510.71 76.2 549.15 67.27 588.69"
              stroke="url(#paint14_linear)" stroke-width="0.8669" stroke-miterlimit="10"/>
        <path opacity="0.54"
              d="M615.33 86.48C628.5 103.37 623.2 129.1 609.01 144.86C607.74 146.27 606.41 147.61 605.03 148.88C590.93 161.86 572.03 168.23 553.26 172.68C549.65 173.53 546.02 174.32 542.38 175.09C525.31 178.7 507.93 182.03 492.04 189.48C486.91 191.88 482.04 194.67 477.43 197.86C446.18 219.54 429.59 258.12 419.11 295.19C418.35 297.88 417.61 300.58 416.88 303.29C406.08 343.24 394.97 382.78 374.55 413.92C366.08 426.84 357.35 440.53 342.18 447.6C324.1 456.06 301.97 453.57 283 448.31C270.08 444.73 257.78 440 245.14 436.63C239.2 435.05 233.19 433.78 226.99 433.04C187.57 428.36 145.49 447.83 117.14 478.04C88.76 508.28 72.33 547.72 63.39 588.15"
              stroke="url(#paint15_linear)" stroke-width="0.8669" stroke-miterlimit="10"/>
        <path opacity="0.54"
              d="M612.94 81.13C626.11 97.99 621 123.67 606.98 139.57C605.73 140.99 604.42 142.34 603.05 143.63C589.1 156.76 570.31 163.35 551.6 168.02C548 168.92 544.38 169.75 540.76 170.56C523.75 174.36 506.41 177.86 490.58 185.38C485.47 187.81 480.61 190.61 476.02 193.82C444.84 215.62 428.4 254.19 418.22 291.33C417.48 294.03 416.76 296.73 416.06 299.44C405.63 339.44 395.22 379.11 375.77 410.83C367.49 424.33 358.86 438.64 343.45 446.04C325.07 454.9 302.4 452.17 283.09 446.47C269.94 442.59 257.46 437.46 244.6 433.75C238.56 432 232.43 430.58 226.11 429.71C185.88 424.2 142.67 443.97 113.8 474.89C84.9 505.84 68.44 546.27 59.49 587.59"
              stroke="url(#paint16_linear)" stroke-width="0.8669" stroke-miterlimit="10"/>
        <path opacity="0.54"
              d="M610.56 75.79C623.73 92.63 618.81 118.24 604.97 134.28C603.73 135.71 602.44 137.08 601.08 138.38C587.28 151.65 568.6 158.48 549.95 163.37C546.36 164.31 542.76 165.18 539.15 166.03C522.2 170.02 504.9 173.68 489.12 181.28C484.03 183.73 479.18 186.55 474.6 189.78C443.49 211.7 427.2 250.26 417.32 287.47C416.6 290.17 415.9 292.88 415.23 295.59C405.17 335.64 395.5 375.46 376.98 407.73C368.9 421.82 360.37 436.75 344.72 444.47C326.04 453.72 302.83 450.76 283.19 444.61C269.82 440.43 257.15 434.91 244.06 430.85C237.91 428.94 231.67 427.36 225.22 426.36C184.18 420.01 139.84 440.1 110.45 471.72C81.03 503.37 64.54 544.8 55.59 587.01"
              stroke="url(#paint17_linear)" stroke-width="0.8669" stroke-miterlimit="10"/>
        <path opacity="0.54"
              d="M608.17 70.45C621.35 87.26 616.6 112.81 602.94 129C601.72 130.45 600.44 131.83 599.1 133.14C585.44 146.56 566.88 153.61 548.29 158.72C544.72 159.7 541.12 160.62 537.53 161.5C520.64 165.68 503.39 169.5 487.66 177.18C482.59 179.65 477.76 182.5 473.19 185.74C442.16 207.79 426.01 246.34 416.43 283.61C415.73 286.32 415.06 289.03 414.41 291.74C404.72 331.84 395.8 371.81 378.2 404.64C370.33 419.32 361.89 434.86 345.99 442.92C327.01 452.57 303.26 449.38 283.29 442.78C269.69 438.29 256.83 432.39 243.53 427.98C237.28 425.91 230.93 424.17 224.35 423.04C182.49 415.86 137.03 436.25 107.12 468.59C77.1801 500.94 60.6601 543.37 51.7001 586.47"
              stroke="url(#paint18_linear)" stroke-width="0.8669" stroke-miterlimit="10"/>
        <path opacity="0.54"
              d="M605.78 65.11C618.96 81.9 614.4 107.38 600.92 123.72C599.72 125.18 598.45 126.57 597.13 127.9C583.62 141.47 565.17 148.75 546.64 154.08C543.08 155.1 539.5 156.06 535.91 156.99C519.08 161.35 501.87 165.35 486.2 173.11C481.15 175.61 476.33 178.47 471.78 181.72C440.82 203.89 424.83 242.43 415.53 279.77C414.86 282.48 414.2 285.2 413.57 287.92C404.25 328.07 396.11 368.19 379.4 401.57C371.75 416.84 363.39 433 347.24 441.38C327.96 451.43 303.67 448 283.37 440.96C269.54 436.17 256.5 429.88 242.98 425.11C236.62 422.87 230.16 420.98 223.45 419.72C180.78 411.71 134.19 432.41 103.76 465.45C73.3001 498.51 56.74 541.93 47.78 585.92"
              stroke="url(#paint19_linear)" stroke-width="0.8669" stroke-miterlimit="10"/>
        <path opacity="0.54"
              d="M603.39 59.76C616.58 76.52 612.2 101.94 598.9 118.43C597.71 119.9 596.46 121.31 595.15 122.65C581.78 136.36 563.45 143.87 544.99 149.43C541.44 150.5 537.87 151.49 534.3 152.46C517.53 157.01 500.36 161.17 484.75 169.01C479.72 171.53 474.92 174.41 470.38 177.68C439.49 199.97 423.65 238.51 414.65 275.91C414 278.63 413.37 281.35 412.76 284.07C403.82 324.27 396.47 364.54 380.63 398.47C373.22 414.33 364.91 431.1 348.53 439.82C328.95 450.26 304.12 446.6 283.48 439.11C269.43 434.02 256.2 427.34 242.45 422.22C235.99 419.82 229.41 417.77 222.58 416.38C179.1 407.53 131.38 428.54 100.43 462.29C69.4501 496.05 52.86 540.48 43.89 585.35"
              stroke="url(#paint20_linear)" stroke-width="0.8669" stroke-miterlimit="10"/>
        <path opacity="0.54"
              d="M601.01 54.42C614.2 71.16 610 96.52 596.88 113.14C595.71 114.62 594.47 116.05 593.18 117.4C579.96 131.26 561.74 139 543.34 144.77C539.8 145.88 536.25 146.92 532.69 147.93C515.97 152.67 498.86 156.99 483.3 164.91C478.29 167.46 473.5 170.35 468.97 173.64C438.15 196.06 422.46 234.58 413.76 272.05C413.13 274.77 412.52 277.5 411.94 280.22C403.37 320.48 396.84 360.9 381.85 395.38C374.69 411.84 366.43 429.22 349.8 438.26C329.92 449.1 304.55 445.2 283.58 437.27C269.3 431.88 255.89 424.8 241.92 419.34C235.36 416.78 228.67 414.57 221.71 413.05C177.42 403.37 128.58 424.69 97.1 459.14C65.6 493.61 48.98 539.03 40 584.79"
              stroke="url(#paint21_linear)" stroke-width="0.8669" stroke-miterlimit="10"/>
        <path opacity="0.54"
              d="M598.62 49.08C611.82 65.79 607.8 91.09 594.86 107.86C593.7 109.36 592.48 110.79 591.2 112.16C578.13 126.17 560.02 134.13 541.68 140.13C538.16 141.28 534.61 142.36 531.07 143.41C514.41 148.34 497.34 152.82 481.84 160.82C476.85 163.39 472.07 166.3 467.56 169.61C436.81 192.15 421.27 230.67 412.87 268.2C412.26 270.93 411.68 273.66 411.12 276.38C402.92 316.69 397.24 357.26 383.07 392.29C376.17 409.34 367.95 427.33 351.07 436.71C330.88 447.95 304.98 443.81 283.68 435.44C269.18 429.74 255.58 422.28 241.38 416.47C234.71 413.74 227.91 411.38 220.82 409.73C175.72 399.22 125.75 420.84 93.75 456C61.73 491.17 45.08 537.59 36.1 584.24"
              stroke="url(#paint22_linear)" stroke-width="0.8669" stroke-miterlimit="10"/>
        <path opacity="0.54"
              d="M596.23 43.74C609.43 60.43 605.6 85.66 592.83 102.58C591.69 104.09 590.49 105.54 589.22 106.92C576.29 121.08 558.3 129.27 540.02 135.48C536.51 136.67 532.98 137.8 529.45 138.88C512.85 143.99 495.82 148.65 480.38 156.72C475.41 159.32 470.65 162.24 466.15 165.57C435.48 188.23 420.08 226.74 411.98 264.34C411.39 267.07 410.83 269.81 410.3 272.54C402.47 312.9 397.64 353.61 384.29 389.21C377.67 406.86 369.46 425.46 352.35 435.16C331.86 446.79 305.42 442.42 283.78 433.61C269.05 427.61 255.27 419.76 240.85 413.6C234.08 410.71 227.17 408.2 219.95 406.41C174.04 395.06 122.94 417 90.42 452.86C57.89 488.74 41.2 536.15 32.21 583.69"
              stroke="url(#paint23_linear)" stroke-width="0.8669" stroke-miterlimit="10"/>
        <path opacity="0.54"
              d="M593.84 38.39C607.05 55.05 603.39 80.22 590.81 97.28C589.69 98.8 588.5 100.27 587.25 101.66C574.47 115.96 556.59 124.38 538.38 130.82C534.88 132.05 531.36 133.22 527.84 134.35C511.3 139.65 494.32 144.47 478.92 152.62C473.97 155.24 469.22 158.18 464.73 161.53C434.13 184.32 418.88 222.81 411.08 260.48C410.51 263.22 409.98 265.96 409.47 268.69C402.01 309.1 398.06 349.95 385.49 386.11C379.15 404.35 370.96 423.57 353.6 433.6C332.81 445.63 305.83 441.02 283.86 431.76C268.91 425.46 254.94 417.22 240.3 410.71C233.42 407.65 226.4 404.99 219.05 403.07C172.33 390.89 120.1 413.13 87.0601 449.7C54.0101 486.28 37.29 534.69 28.29 583.12"
              stroke="url(#paint24_linear)" stroke-width="0.8669" stroke-miterlimit="10"/>
        <path opacity="0.54"
              d="M591.46 33.05C604.67 49.69 601.2 74.79 588.79 92C587.68 93.54 586.51 95.01 585.27 96.43C572.63 110.88 554.87 119.53 536.72 126.19C533.24 127.47 529.73 128.67 526.22 129.84C509.74 135.33 492.8 140.31 477.46 148.54C472.53 151.18 467.8 154.15 463.32 157.5C432.79 180.41 417.69 218.9 410.18 256.63C409.63 259.37 409.12 262.11 408.64 264.85C401.55 305.31 398.49 346.29 386.7 383.03C380.66 401.87 372.47 421.69 354.86 432.05C333.77 444.48 306.25 439.63 283.95 429.93C268.77 423.33 254.61 414.69 239.75 407.84C232.77 404.62 225.63 401.8 218.16 399.75C170.63 386.73 117.27 409.29 83.7 446.57C50.13 483.85 33.38 533.26 24.37 582.58"
              stroke="url(#paint25_linear)" stroke-width="0.8669" stroke-miterlimit="10"/>
        <path opacity="0.54"
              d="M589.07 27.71C602.29 44.32 598.99 69.37 586.77 86.72C585.68 88.27 584.52 89.76 583.3 91.19C570.81 105.79 553.16 114.66 535.07 121.54C531.6 122.86 528.1 124.11 524.61 125.31C508.19 130.99 491.29 136.14 476.01 144.44C471.1 147.11 466.38 150.09 461.92 153.46C431.46 176.49 416.51 214.97 409.3 252.77C408.78 255.52 408.29 258.26 407.83 261.01C401.11 301.52 398.95 342.62 387.93 379.94C382.19 399.37 374 419.81 356.15 430.5C334.76 443.32 306.7 438.24 284.07 428.1C268.67 421.2 254.32 412.17 239.24 404.97C232.16 401.59 224.91 398.61 217.31 396.43C168.97 382.58 114.48 405.45 80.39 443.43C46.3 481.42 29.52 531.82 20.5 582.03"
              stroke="url(#paint26_linear)" stroke-width="0.8669" stroke-miterlimit="10"/>
        <path opacity="0.54"
              d="M586.68 22.37C599.9 38.96 596.79 63.94 584.75 81.44C583.67 83 582.53 84.51 581.33 85.95C568.98 100.69 551.45 109.79 533.42 116.9C529.96 118.26 526.48 119.55 523 120.8C506.64 126.67 489.79 131.98 474.56 140.36C469.67 143.05 464.96 146.05 460.51 149.44C430.12 172.59 415.33 211.07 408.41 248.93C407.91 251.68 407.44 254.43 407.01 257.18C400.66 297.74 399.42 338.95 389.15 376.87C383.73 396.89 375.51 417.94 357.42 428.96C335.73 442.18 307.13 436.87 284.16 426.27C268.53 419.06 254 409.65 238.7 402.1C231.51 398.55 224.15 395.42 216.42 393.11C167.27 378.43 111.65 401.6 77.04 440.29C42.43 478.98 25.62 530.38 16.59 581.48"
              stroke="url(#paint27_linear)" stroke-width="0.8669" stroke-miterlimit="10"/>
        <path opacity="0.54"
              d="M584.29 17.02C597.52 33.58 594.59 58.5 582.72 76.14C581.66 77.71 580.53 79.23 579.34 80.69C567.14 95.58 549.72 104.91 531.75 112.23C528.3 113.63 524.83 114.97 521.37 116.25C505.06 122.3 488.26 127.78 473.09 136.24C468.22 138.96 463.53 141.97 459.09 145.38C428.78 168.66 414.13 207.12 407.51 245.05C407.03 247.81 406.59 250.56 406.18 253.31C400.2 293.92 399.89 335.23 390.36 373.75C385.26 394.36 377.02 416.03 358.68 427.38C336.69 441 307.55 435.45 284.25 424.41C268.39 416.9 253.68 407.1 238.15 399.2C230.86 395.49 223.38 392.2 215.53 389.76C165.57 374.24 108.82 397.73 73.6901 437.12C38.5601 476.52 21.7201 528.91 12.6901 580.9"
              stroke="url(#paint28_linear)" stroke-width="0.8669" stroke-miterlimit="10"/>
        <path opacity="0.54"
              d="M581.91 11.68C595.14 28.22 592.39 53.07 580.71 70.86C579.67 72.45 578.55 73.98 577.38 75.45C565.33 90.49 548.02 100.04 530.12 107.59C526.69 109.04 523.23 110.41 519.77 111.74C503.52 117.98 486.76 123.63 471.65 132.16C466.8 134.9 462.12 137.93 457.7 141.36C427.46 164.76 412.96 203.22 406.64 241.21C406.18 243.97 405.76 246.73 405.38 249.48C399.77 290.14 400.4 331.54 391.6 370.68C386.84 391.87 378.56 414.16 359.98 425.84C337.69 439.85 308.01 434.07 284.38 422.59C268.3 414.78 253.4 404.59 237.65 396.33C230.25 392.46 222.67 389.01 214.69 386.44C163.92 370.09 106.04 393.88 70.39 433.98C34.74 474.08 17.87 527.47 8.83002 580.35"
              stroke="url(#paint29_linear)" stroke-width="0.8669" stroke-miterlimit="10"/>
        <path opacity="0.54"
              d="M579.52 6.34C592.75 22.85 590.19 47.64 578.68 65.58C577.65 67.18 576.56 68.73 575.39 70.21C563.48 85.4 546.29 95.18 528.45 102.94C525.03 104.43 521.58 105.84 518.14 107.21C501.95 113.64 485.24 119.45 470.18 128.06C465.34 130.82 460.69 133.87 456.27 137.31C426.1 160.83 411.75 199.28 405.72 237.34C405.28 240.11 404.89 242.87 404.53 245.63C399.29 286.35 400.86 327.82 392.79 367.58C388.37 389.35 380.05 412.27 361.22 424.28C338.63 438.69 308.41 432.67 284.45 420.75C268.14 412.64 253.06 402.05 237.08 393.45C229.58 389.41 221.88 385.81 213.77 383.11C162.19 365.93 103.18 390.03 67.01 430.83C30.84 471.64 13.93 526.02 4.89001 579.79"
              stroke="url(#paint30_linear)" stroke-width="0.8669" stroke-miterlimit="10"/>
        <path opacity="0.54"
              d="M577.13 1C591.55 18.96 587.44 46.69 573.42 64.97C559.4 83.24 537.84 93.95 516.53 102.69C495.22 111.43 472.97 119.06 454.86 133.28C422.58 158.65 408.58 201.03 403.72 241.79C398.85 282.56 401.38 324.1 394.02 364.49C389.95 386.84 381.57 410.38 362.5 422.72C339.61 437.53 308.85 431.27 284.55 418.9C260.25 406.53 238.68 388.64 212.9 379.77C160.51 361.75 100.37 386.16 63.68 427.67C26.99 469.18 10.05 524.56 1 579.22"
              stroke="url(#paint31_linear)" stroke-width="0.8669" stroke-miterlimit="10"/>
    </g>
    <defs>
        <linearGradient id="paint0_linear" x1="135.512" y1="612.216" x2="645.556" y2="159.668"
                        gradientUnits="userSpaceOnUse">
            <stop stop-color="#7ED4EF"/>
            <stop offset="0.2294" stop-color="#66BFE6"/>
            <stop offset="0.711" stop-color="#298BD0"/>
            <stop offset="1" stop-color="#0169C2"/>
        </linearGradient>
        <linearGradient id="paint1_linear" x1="130.314" y1="610.199" x2="643.582" y2="154.792"
                        gradientUnits="userSpaceOnUse">
            <stop stop-color="#7ED4EF"/>
            <stop offset="0.2294" stop-color="#66BFE6"/>
            <stop offset="0.711" stop-color="#298BD0"/>
            <stop offset="1" stop-color="#0169C2"/>
        </linearGradient>
        <linearGradient id="paint2_linear" x1="125.118" y1="608.184" x2="641.609" y2="149.916"
                        gradientUnits="userSpaceOnUse">
            <stop stop-color="#7ED4EF"/>
            <stop offset="0.2294" stop-color="#66BFE6"/>
            <stop offset="0.711" stop-color="#298BD0"/>
            <stop offset="1" stop-color="#0169C2"/>
        </linearGradient>
        <linearGradient id="paint3_linear" x1="120.33" y1="606.629" x2="640.045" y2="145.501"
                        gradientUnits="userSpaceOnUse">
            <stop stop-color="#7ED4EF"/>
            <stop offset="0.2294" stop-color="#66BFE6"/>
            <stop offset="0.711" stop-color="#298BD0"/>
            <stop offset="1" stop-color="#0169C2"/>
        </linearGradient>
        <linearGradient id="paint4_linear" x1="116.241" y1="605.862" x2="639.18" y2="141.874"
                        gradientUnits="userSpaceOnUse">
            <stop stop-color="#7ED4EF"/>
            <stop offset="0.2294" stop-color="#66BFE6"/>
            <stop offset="0.711" stop-color="#298BD0"/>
            <stop offset="1" stop-color="#0169C2"/>
        </linearGradient>
        <linearGradient id="paint5_linear" x1="112.193" y1="605.141" x2="638.355" y2="138.293"
                        gradientUnits="userSpaceOnUse">
            <stop stop-color="#7ED4EF"/>
            <stop offset="0.2294" stop-color="#66BFE6"/>
            <stop offset="0.711" stop-color="#298BD0"/>
            <stop offset="1" stop-color="#0169C2"/>
        </linearGradient>
        <linearGradient id="paint6_linear" x1="108.19" y1="604.47" x2="637.576" y2="134.762"
                        gradientUnits="userSpaceOnUse">
            <stop stop-color="#7ED4EF"/>
            <stop offset="0.2294" stop-color="#66BFE6"/>
            <stop offset="0.711" stop-color="#298BD0"/>
            <stop offset="1" stop-color="#0169C2"/>
        </linearGradient>
        <linearGradient id="paint7_linear" x1="104.235" y1="603.853" x2="636.844" y2="131.285"
                        gradientUnits="userSpaceOnUse">
            <stop stop-color="#7ED4EF"/>
            <stop offset="0.2294" stop-color="#66BFE6"/>
            <stop offset="0.711" stop-color="#298BD0"/>
            <stop offset="1" stop-color="#0169C2"/>
        </linearGradient>
        <linearGradient id="paint8_linear" x1="100.383" y1="603.352" x2="636.214" y2="127.924"
                        gradientUnits="userSpaceOnUse">
            <stop stop-color="#7ED4EF"/>
            <stop offset="0.2294" stop-color="#66BFE6"/>
            <stop offset="0.711" stop-color="#298BD0"/>
            <stop offset="1" stop-color="#0169C2"/>
        </linearGradient>
        <linearGradient id="paint9_linear" x1="96.6147" y1="602.945" x2="635.669" y2="124.658"
                        gradientUnits="userSpaceOnUse">
            <stop stop-color="#7ED4EF"/>
            <stop offset="0.2294" stop-color="#66BFE6"/>
            <stop offset="0.711" stop-color="#298BD0"/>
            <stop offset="1" stop-color="#0169C2"/>
        </linearGradient>
        <linearGradient id="paint10_linear" x1="92.8974" y1="602.595" x2="635.174" y2="121.448"
                        gradientUnits="userSpaceOnUse">
            <stop stop-color="#7ED4EF"/>
            <stop offset="0.2294" stop-color="#66BFE6"/>
            <stop offset="0.711" stop-color="#298BD0"/>
            <stop offset="1" stop-color="#0169C2"/>
        </linearGradient>
        <linearGradient id="paint11_linear" x1="89.2155" y1="602.285" x2="634.715" y2="118.279"
                        gradientUnits="userSpaceOnUse">
            <stop stop-color="#7ED4EF"/>
            <stop offset="0.2294" stop-color="#66BFE6"/>
            <stop offset="0.711" stop-color="#298BD0"/>
            <stop offset="1" stop-color="#0169C2"/>
        </linearGradient>
        <linearGradient id="paint12_linear" x1="85.5591" y1="602.004" x2="634.282" y2="115.138"
                        gradientUnits="userSpaceOnUse">
            <stop stop-color="#7ED4EF"/>
            <stop offset="0.2294" stop-color="#66BFE6"/>
            <stop offset="0.711" stop-color="#298BD0"/>
            <stop offset="1" stop-color="#0169C2"/>
        </linearGradient>
        <linearGradient id="paint13_linear" x1="81.9221" y1="601.744" x2="633.867" y2="112.019"
                        gradientUnits="userSpaceOnUse">
            <stop stop-color="#7ED4EF"/>
            <stop offset="0.2294" stop-color="#66BFE6"/>
            <stop offset="0.711" stop-color="#298BD0"/>
            <stop offset="1" stop-color="#0169C2"/>
        </linearGradient>
        <linearGradient id="paint14_linear" x1="78.2999" y1="601.501" x2="633.468" y2="108.917"
                        gradientUnits="userSpaceOnUse">
            <stop stop-color="#7ED4EF"/>
            <stop offset="0.2294" stop-color="#66BFE6"/>
            <stop offset="0.711" stop-color="#298BD0"/>
            <stop offset="1" stop-color="#0169C2"/>
        </linearGradient>
        <linearGradient id="paint15_linear" x1="74.6893" y1="601.271" x2="633.079" y2="105.828"
                        gradientUnits="userSpaceOnUse">
            <stop stop-color="#7ED4EF"/>
            <stop offset="0.2294" stop-color="#66BFE6"/>
            <stop offset="0.711" stop-color="#298BD0"/>
            <stop offset="1" stop-color="#0169C2"/>
        </linearGradient>
        <linearGradient id="paint16_linear" x1="71.0881" y1="601.052" x2="632.701" y2="102.749"
                        gradientUnits="userSpaceOnUse">
            <stop stop-color="#7ED4EF"/>
            <stop offset="0.2294" stop-color="#66BFE6"/>
            <stop offset="0.711" stop-color="#298BD0"/>
            <stop offset="1" stop-color="#0169C2"/>
        </linearGradient>
        <linearGradient id="paint17_linear" x1="67.4945" y1="600.84" x2="632.329" y2="99.6789"
                        gradientUnits="userSpaceOnUse">
            <stop stop-color="#7ED4EF"/>
            <stop offset="0.2294" stop-color="#66BFE6"/>
            <stop offset="0.711" stop-color="#298BD0"/>
            <stop offset="1" stop-color="#0169C2"/>
        </linearGradient>
        <linearGradient id="paint18_linear" x1="63.9072" y1="600.636" x2="631.965" y2="96.6158"
                        gradientUnits="userSpaceOnUse">
            <stop stop-color="#7ED4EF"/>
            <stop offset="0.2294" stop-color="#66BFE6"/>
            <stop offset="0.711" stop-color="#298BD0"/>
            <stop offset="1" stop-color="#0169C2"/>
        </linearGradient>
        <linearGradient id="paint19_linear" x1="60.3251" y1="600.438" x2="631.605" y2="93.5583"
                        gradientUnits="userSpaceOnUse">
            <stop stop-color="#7ED4EF"/>
            <stop offset="0.2294" stop-color="#66BFE6"/>
            <stop offset="0.711" stop-color="#298BD0"/>
            <stop offset="1" stop-color="#0169C2"/>
        </linearGradient>
        <linearGradient id="paint20_linear" x1="56.7474" y1="600.245" x2="631.249" y2="90.5058"
                        gradientUnits="userSpaceOnUse">
            <stop stop-color="#7ED4EF"/>
            <stop offset="0.2294" stop-color="#66BFE6"/>
            <stop offset="0.711" stop-color="#298BD0"/>
            <stop offset="1" stop-color="#0169C2"/>
        </linearGradient>
        <linearGradient id="paint21_linear" x1="53.1734" y1="600.055" x2="630.898" y2="87.4575"
                        gradientUnits="userSpaceOnUse">
            <stop stop-color="#7ED4EF"/>
            <stop offset="0.2294" stop-color="#66BFE6"/>
            <stop offset="0.711" stop-color="#298BD0"/>
            <stop offset="1" stop-color="#0169C2"/>
        </linearGradient>
        <linearGradient id="paint22_linear" x1="49.6026" y1="599.87" x2="630.549" y2="84.413"
                        gradientUnits="userSpaceOnUse">
            <stop stop-color="#7ED4EF"/>
            <stop offset="0.2294" stop-color="#66BFE6"/>
            <stop offset="0.711" stop-color="#298BD0"/>
            <stop offset="1" stop-color="#0169C2"/>
        </linearGradient>
        <linearGradient id="paint23_linear" x1="46.0347" y1="599.687" x2="630.203" y2="81.3712"
                        gradientUnits="userSpaceOnUse">
            <stop stop-color="#7ED4EF"/>
            <stop offset="0.2294" stop-color="#66BFE6"/>
            <stop offset="0.711" stop-color="#298BD0"/>
            <stop offset="1" stop-color="#0169C2"/>
        </linearGradient>
        <linearGradient id="paint24_linear" x1="42.4691" y1="599.507" x2="629.86" y2="78.3322"
                        gradientUnits="userSpaceOnUse">
            <stop stop-color="#7ED4EF"/>
            <stop offset="0.2294" stop-color="#66BFE6"/>
            <stop offset="0.711" stop-color="#298BD0"/>
            <stop offset="1" stop-color="#0169C2"/>
        </linearGradient>
        <linearGradient id="paint25_linear" x1="38.9056" y1="599.329" x2="629.518" y2="75.2956"
                        gradientUnits="userSpaceOnUse">
            <stop stop-color="#7ED4EF"/>
            <stop offset="0.2294" stop-color="#66BFE6"/>
            <stop offset="0.711" stop-color="#298BD0"/>
            <stop offset="1" stop-color="#0169C2"/>
        </linearGradient>
        <linearGradient id="paint26_linear" x1="35.3441" y1="599.153" x2="629.179" y2="72.2611"
                        gradientUnits="userSpaceOnUse">
            <stop stop-color="#7ED4EF"/>
            <stop offset="0.2294" stop-color="#66BFE6"/>
            <stop offset="0.711" stop-color="#298BD0"/>
            <stop offset="1" stop-color="#0169C2"/>
        </linearGradient>
        <linearGradient id="paint27_linear" x1="31.7841" y1="598.979" x2="628.841" y2="69.2283"
                        gradientUnits="userSpaceOnUse">
            <stop stop-color="#7ED4EF"/>
            <stop offset="0.2294" stop-color="#66BFE6"/>
            <stop offset="0.711" stop-color="#298BD0"/>
            <stop offset="1" stop-color="#0169C2"/>
        </linearGradient>
        <linearGradient id="paint28_linear" x1="28.2258" y1="598.807" x2="628.505" y2="66.1974"
                        gradientUnits="userSpaceOnUse">
            <stop stop-color="#7ED4EF"/>
            <stop offset="0.2294" stop-color="#66BFE6"/>
            <stop offset="0.711" stop-color="#298BD0"/>
            <stop offset="1" stop-color="#0169C2"/>
        </linearGradient>
        <linearGradient id="paint29_linear" x1="24.6686" y1="598.636" x2="628.17" y2="63.1679"
                        gradientUnits="userSpaceOnUse">
            <stop stop-color="#7ED4EF"/>
            <stop offset="0.2294" stop-color="#66BFE6"/>
            <stop offset="0.711" stop-color="#298BD0"/>
            <stop offset="1" stop-color="#0169C2"/>
        </linearGradient>
        <linearGradient id="paint30_linear" x1="21.1128" y1="598.467" x2="627.836" y2="60.1396"
                        gradientUnits="userSpaceOnUse">
            <stop stop-color="#7ED4EF"/>
            <stop offset="0.2294" stop-color="#66BFE6"/>
            <stop offset="0.711" stop-color="#298BD0"/>
            <stop offset="1" stop-color="#0169C2"/>
        </linearGradient>
        <linearGradient id="paint31_linear" x1="17.558" y1="598.299" x2="627.503" y2="57.1127"
                        gradientUnits="userSpaceOnUse">
            <stop stop-color="#7ED4EF"/>
            <stop offset="0.2294" stop-color="#66BFE6"/>
            <stop offset="0.711" stop-color="#298BD0"/>
            <stop offset="1" stop-color="#0169C2"/>
        </linearGradient>
    </defs>
</svg>
