<svg width="100%" height="100%" viewBox="0 0 1120 829" fill="none" xmlns="http://www.w3.org/2000/svg">
    <g opacity="0.54">
        <path opacity="0.54" d="M12.1017 545.951C-10.2035 516.545 3.45206 471.118 32.2104 448.012C60.9688 424.89 99.7049 419.015 136.551 416.921C173.397 414.81 211.282 415.457 245.812 402.465C317.274 375.563 355.227 299.112 384.411 228.553C413.595 157.994 446.099 80.6406 514.156 45.991C567.518 18.8331 631.011 24.469 689.72 12.7205C792.204 -7.77986 880.931 -86.6142 913.316 -186" stroke="url(#paint0_linear)" stroke-width="0.8669" stroke-miterlimit="10"/>
        <path opacity="0.54" d="M16.1711 555.043C-6.13405 525.689 7.21501 480.363 35.6669 457.002C38.2039 454.908 40.8431 452.967 43.5333 451.128C71.0147 432.535 105.937 427.103 139.36 424.822C145.814 424.379 152.301 424.021 158.788 423.664C189.249 421.995 219.915 420.258 248.281 409.412C257.476 405.905 266.125 401.563 274.264 396.523C329.193 362.554 360.999 296.66 385.909 235.091C387.714 230.613 389.536 226.118 391.375 221.606C418.601 154.81 450.373 85.5784 512.044 51.2182C529.684 41.3937 548.431 34.651 568.437 30.4624C592.054 25.5076 616.896 24.1284 641.261 22.5109C657.896 21.4041 674.395 20.1612 690.622 17.5901C698.25 16.3812 705.827 14.8488 713.336 12.9759C761.147 1.07408 805.877 -24.7046 841.735 -59.3202C877.679 -94.0209 904.905 -137.422 919.957 -185.064" stroke="url(#paint1_linear)" stroke-width="0.8669" stroke-miterlimit="10"/>
        <path opacity="0.54" d="M20.2406 564.135C-2.08165 534.815 10.9609 489.609 39.1063 465.993C41.6263 463.881 44.2314 461.906 46.9046 460.05C74.1306 441.219 108.865 435.395 142.187 432.722C148.623 432.211 155.076 431.786 161.546 431.36C191.905 429.368 222.503 427.359 250.767 416.376C259.928 412.818 268.56 408.459 276.682 403.385C331.492 369.195 363.042 303.318 387.442 241.647C389.213 237.169 391 232.656 392.788 228.144C419.384 161.263 450.373 92.6446 510.001 56.4795C527.42 45.9059 545.877 37.8521 566.292 33.1016C590.419 27.4828 616.181 26.4952 641.108 25.6268C658.118 25.0309 674.94 24.452 691.542 22.4769C699.357 21.5404 707.104 20.2804 714.834 18.6288C764.025 8.14026 810.679 -18.1662 847.423 -53.9907C884.252 -89.8834 911.529 -134.988 926.58 -184.144" stroke="url(#paint2_linear)" stroke-width="0.8669" stroke-miterlimit="10"/>
        <path opacity="0.54" d="M24.2929 573.228C1.97072 543.959 14.6898 498.854 42.5457 475C45.0317 472.871 47.6027 470.862 50.2589 468.989C77.2465 449.902 111.777 443.687 144.996 440.64C151.398 440.061 157.852 439.55 164.288 439.056C194.545 436.74 225.057 434.459 253.236 423.34C262.362 419.748 270.961 415.355 279.066 410.264C333.739 375.869 365.051 310.009 388.94 248.219C390.677 243.724 392.414 239.212 394.167 234.7C420.133 167.716 450.356 99.6596 507.907 61.7408C525.121 50.4009 543.272 41.0702 564.112 35.7578C588.75 29.4579 615.431 28.879 640.921 28.7768C658.322 28.6917 675.451 28.7938 692.427 27.3976C700.413 26.7506 708.364 25.746 716.299 24.3158C766.868 15.2405 815.446 -11.5768 853.075 -48.6103C890.79 -85.7118 918.118 -132.502 933.187 -183.174" stroke="url(#paint3_linear)" stroke-width="0.8669" stroke-miterlimit="10"/>
        <path opacity="0.54" d="M28.3624 582.337C6.04015 553.102 18.4527 508.117 45.9852 484.007C48.4541 481.845 50.9911 479.835 53.6132 477.928C80.3454 458.586 114.689 451.996 147.806 448.574C154.191 447.91 160.61 447.348 167.046 446.786C197.201 444.147 227.645 441.576 255.739 430.338C264.831 426.695 273.413 422.285 281.484 417.16C336.038 382.561 367.078 316.701 390.49 254.808C392.192 250.313 393.895 245.784 395.598 241.255C420.934 174.186 450.373 106.573 505.864 67.0191C522.856 54.896 540.735 44.2883 561.984 38.431C587.15 31.45 614.733 31.2797 640.785 31.9268C658.561 32.3695 676.013 33.1187 693.38 32.3184C701.536 31.9438 709.692 31.1946 717.848 30.0027C769.797 22.3577 820.299 -5.0045 858.813 -43.2298C897.413 -81.5232 924.793 -130.016 939.878 -182.203" stroke="url(#paint4_linear)" stroke-width="0.8669" stroke-miterlimit="10"/>
        <path opacity="0.54" d="M32.4318 591.429C10.0925 562.245 22.1986 517.345 49.4246 492.997C51.8594 490.818 54.3794 488.774 56.9845 486.85C83.4613 467.252 117.617 460.289 150.632 456.474C157 455.742 163.402 455.112 169.804 454.482C199.857 451.52 230.233 448.676 258.225 437.302C267.283 433.624 275.831 429.18 283.901 424.021C338.336 389.201 369.121 323.376 392.022 261.364C393.691 256.852 395.342 252.339 397.011 247.793C421.717 180.639 450.356 113.383 503.803 72.2634C520.609 59.34 538.164 47.4893 559.822 41.0531C585.498 33.4081 614.001 33.6294 640.631 35.0256C658.799 35.9791 676.575 37.3924 694.3 37.188C702.643 37.0859 710.969 36.6091 719.346 35.6386C772.675 29.4068 825.1 1.5338 864.5 -37.9004C903.969 -77.4027 931.416 -127.581 946.519 -181.284" stroke="url(#paint5_linear)" stroke-width="0.8669" stroke-miterlimit="10"/>
        <path opacity="0.54" d="M36.5012 600.522C14.162 571.372 25.9446 526.591 52.881 501.987C55.2818 499.791 57.7848 497.714 60.3558 495.772C86.5942 475.936 120.546 468.564 153.442 464.392C159.793 463.592 166.161 462.877 172.546 462.179C202.496 458.909 232.787 455.776 260.694 444.266C269.718 440.537 278.249 436.059 286.285 430.883C340.601 395.859 371.13 330.033 393.52 267.919C395.155 263.407 396.773 258.878 398.39 254.332C422.466 187.093 450.305 120.109 501.709 77.5247C518.31 63.784 535.559 50.6904 557.642 43.7094C583.83 35.3832 613.252 36.0132 640.444 38.1756C658.986 39.6399 677.086 41.7172 695.185 42.1088C703.699 42.2961 712.229 42.0748 720.828 41.3256C775.535 36.507 829.885 8.10618 870.17 -32.5199C910.524 -73.2141 938.022 -125.095 953.142 -180.313" stroke="url(#paint6_linear)" stroke-width="0.8669" stroke-miterlimit="10"/>
        <path opacity="0.54" d="M40.5536 609.614C18.1973 580.515 29.6905 535.837 56.3034 510.995C58.6872 508.781 61.1561 506.687 63.7101 504.712C89.6931 484.62 123.457 476.873 156.251 472.309C162.568 471.441 168.936 470.658 175.287 469.892C205.152 466.299 235.358 462.877 263.163 451.247C272.153 447.484 280.666 442.972 288.669 437.762C342.865 402.533 373.139 336.725 395.019 274.491C396.602 269.962 398.186 265.433 399.769 260.887C423.215 193.563 450.203 126.766 499.615 82.786C516.012 68.194 532.953 53.9084 555.463 46.3485C582.161 37.3413 612.503 38.3799 640.257 41.2915C659.191 43.2667 677.597 46.008 696.088 46.9956C704.788 47.4553 713.489 47.5064 722.309 46.9785C778.396 43.5902 834.669 14.6615 875.84 -27.1734C917.079 -69.0766 944.629 -122.643 959.749 -179.377" stroke="url(#paint7_linear)" stroke-width="0.8669" stroke-miterlimit="10"/>
        <path opacity="0.54" d="M44.623 618.723C22.2668 589.676 33.4364 545.099 59.7599 520.002C62.1096 517.754 64.5615 515.643 67.0815 513.651C92.8261 493.304 126.369 485.165 159.078 480.227C165.378 479.273 171.712 478.422 178.046 477.588C207.808 473.672 237.946 469.977 265.649 458.211C274.622 454.414 283.084 449.868 291.087 444.641C345.147 409.191 375.183 343.399 396.551 281.064C398.101 276.535 399.65 271.988 401.183 267.425C423.981 200.016 450.118 133.356 497.555 88.0473C513.747 72.5869 530.399 57.1095 553.3 49.0047C580.509 39.3335 611.771 40.7637 640.086 44.4245C659.395 46.9104 678.124 50.3328 696.99 51.9163C705.861 52.6484 714.766 52.972 723.79 52.6655C781.256 50.6904 839.437 21.2339 881.51 -21.793C923.635 -64.8879 951.235 -120.174 966.372 -178.406" stroke="url(#paint8_linear)" stroke-width="0.8669" stroke-miterlimit="10"/>
        <path opacity="0.54" d="M48.6924 627.816C26.3191 598.802 37.1993 554.345 63.1993 528.992C65.532 526.727 67.9498 524.582 70.4357 522.573C95.925 501.987 129.281 493.457 161.887 488.145C168.17 487.123 174.487 486.203 180.804 485.301C210.465 481.061 240.517 477.094 268.135 465.192C277.074 461.344 285.519 456.781 293.488 451.52C347.429 415.865 377.209 350.091 398.084 287.636C399.599 283.107 401.097 278.544 402.596 273.981C424.765 206.486 449.999 139.877 495.494 93.3256C511.466 76.9799 527.828 60.3276 551.155 51.6609C578.875 41.3086 611.056 43.1305 639.95 47.5574C659.65 50.5712 678.686 54.6406 697.944 56.8201C706.985 57.8417 716.094 58.4206 725.34 58.3355C784.185 57.7906 844.29 27.8063 887.248 -16.4295C930.258 -60.7164 957.927 -117.705 973.064 -177.453" stroke="url(#paint9_linear)" stroke-width="0.8669" stroke-miterlimit="10"/>
        <path opacity="0.54" d="M52.7618 636.908C30.3885 607.945 40.9452 563.573 66.6387 537.999C68.9374 535.717 71.3211 533.555 73.807 531.512C99.0579 510.671 132.209 501.749 164.713 496.062C170.962 494.972 177.262 493.985 183.562 493.014C213.121 488.468 243.105 484.194 270.621 472.173C279.526 468.291 287.937 463.694 295.888 458.398C349.71 422.54 379.235 356.782 399.599 294.208C401.08 289.662 402.545 285.099 403.992 280.536C425.531 212.956 449.828 146.33 493.417 98.5869C509.167 81.3387 525.24 63.5456 548.993 54.317C577.223 43.2836 610.323 45.5142 639.78 50.7074C659.872 54.2319 679.214 58.9654 698.846 61.7408C708.075 63.0348 717.354 63.8862 726.821 64.0224C787.045 64.8908 849.074 34.3786 892.918 -11.0661C936.813 -56.5619 964.533 -115.236 979.687 -176.499" stroke="url(#paint10_linear)" stroke-width="0.8669" stroke-miterlimit="10"/>
        <path opacity="0.54" d="M56.8143 646.001C34.4239 617.072 44.6741 572.819 70.0782 546.989C72.3428 544.674 74.7095 542.494 77.1613 540.434C102.157 519.338 135.121 510.041 167.506 503.979C173.738 502.822 180.021 501.749 186.287 500.71C215.743 495.841 245.659 491.295 273.089 479.137C281.96 475.204 290.355 470.59 298.289 465.26C351.992 429.18 381.244 363.44 401.114 300.764C402.562 296.218 403.975 291.638 405.388 287.057C426.297 219.393 449.607 152.715 491.34 103.831C506.851 85.6636 522.652 66.7297 546.813 56.9392C575.555 45.2418 609.574 47.8639 639.593 53.8063C660.059 57.8417 679.725 63.2392 699.731 66.6105C709.13 68.194 718.614 69.3007 728.303 69.6583C789.906 71.9399 853.859 40.8999 898.588 -5.73662C943.369 -52.4243 971.14 -112.802 986.311 -175.58" stroke="url(#paint11_linear)" stroke-width="0.8669" stroke-miterlimit="10"/>
        <path opacity="0.54" d="M60.8837 655.11C38.4934 626.232 48.437 582.082 73.5176 555.996C75.7651 553.664 78.0978 551.45 80.5327 549.356C105.273 528.004 138.049 518.316 170.332 511.88C176.547 510.637 182.796 509.513 189.045 508.406C218.399 503.213 248.23 498.395 275.575 486.101C284.412 482.134 292.79 477.469 300.69 472.122C354.273 435.838 383.27 370.114 402.63 307.319C404.043 302.756 405.422 298.176 406.784 293.596C427.063 225.829 449.334 159.049 489.262 109.075C504.536 89.9714 520.081 69.9307 544.651 59.5784C573.903 47.1999 608.842 50.2307 639.439 56.9222C660.297 61.4684 680.287 67.547 700.668 71.4972C710.254 73.3531 719.925 74.7323 729.818 75.3112C792.8 79.0231 858.677 47.4553 904.292 -0.390211C949.958 -48.2868 977.78 -110.35 992.951 -174.643" stroke="url(#paint12_linear)" stroke-width="0.8669" stroke-miterlimit="10"/>
        <path opacity="0.54" d="M64.9531 664.202C42.5457 635.359 52.1829 591.327 76.9741 564.987C79.1875 562.637 81.5032 560.406 83.904 558.278C108.406 536.688 140.978 526.608 173.159 519.797C179.357 518.486 185.571 517.277 191.803 516.12C221.055 510.603 250.818 505.495 278.061 493.082C286.864 489.081 295.207 484.381 303.091 479.001C356.538 442.512 385.296 376.789 404.145 313.892C405.507 309.328 406.852 304.731 408.181 300.151C427.83 232.299 449.028 165.383 487.202 114.354C502.203 94.2962 517.51 73.1488 542.505 62.2346C572.268 49.175 608.127 52.6144 639.286 60.0722C660.519 65.1462 680.832 71.8718 701.587 76.418C711.344 78.5463 721.202 80.1809 731.316 80.9982C795.678 86.1233 863.479 54.0276 909.979 4.99027C956.531 -44.0982 984.404 -107.864 999.592 -173.673" stroke="url(#paint13_linear)" stroke-width="0.8669" stroke-miterlimit="10"/>
        <path opacity="0.54" d="M69.0055 673.295C46.5981 644.502 55.9118 600.573 80.3965 573.994C82.5759 571.627 84.8745 569.363 87.2413 567.217C111.488 545.372 143.873 534.9 175.951 527.715C182.115 526.336 188.33 525.059 194.545 523.816C223.712 517.993 253.389 512.595 280.53 500.046C289.299 495.994 297.625 491.277 305.492 485.88C358.82 449.187 387.323 383.48 405.678 320.464C407.006 315.884 408.317 311.287 409.594 306.706C428.613 238.769 448.704 171.666 485.142 119.615C499.87 98.5869 514.939 76.3669 540.343 64.8908C570.617 51.1671 607.378 54.9982 639.116 63.2051C660.74 68.7899 681.359 76.1796 702.507 81.3217C712.434 83.7395 722.496 85.6295 732.832 86.6681C798.572 93.2064 868.297 60.6 915.683 10.3537C963.12 -39.9436 991.044 -105.395 1006.25 -172.719" stroke="url(#paint14_linear)" stroke-width="0.8669" stroke-miterlimit="10"/>
        <path opacity="0.54" d="M73.0749 682.387C50.6505 653.628 59.6747 609.818 83.8359 582.984C85.9983 580.583 88.2629 578.302 90.6126 576.139C114.62 554.038 146.801 543.192 178.761 535.615C184.907 534.168 191.088 532.823 197.286 531.512C226.351 525.365 255.943 519.695 282.999 507.01C291.734 502.924 300.026 498.173 307.875 492.742C361.084 455.827 389.332 390.138 407.176 327.019C408.47 322.439 409.73 317.842 410.973 313.227C429.362 245.205 448.279 177.881 483.048 124.859C497.469 102.861 512.334 79.5509 538.164 67.5129C568.948 53.1082 606.629 57.3478 638.929 66.304C660.927 72.3996 681.87 80.4533 703.392 86.1914C713.506 88.8816 723.739 91.044 734.296 92.304C801.416 100.273 873.065 67.1213 921.336 15.6831C969.658 -35.8061 997.633 -102.96 1012.86 -171.8" stroke="url(#paint15_linear)" stroke-width="0.8669" stroke-miterlimit="10"/>
        <path opacity="0.54" d="M77.1443 691.496C54.72 662.789 63.4207 619.064 87.2923 591.991C89.4207 589.573 91.6512 587.275 93.9839 585.078C117.736 562.722 149.73 551.501 181.587 543.55C187.717 542.017 193.881 540.604 200.044 539.225C229.007 532.755 258.531 526.795 285.485 513.991C294.186 509.854 302.461 505.086 310.276 499.621C363.366 462.502 391.358 396.829 408.691 333.592C409.951 328.994 411.177 324.397 412.369 319.783C430.128 251.675 447.853 184.13 480.97 130.121C495.069 107.134 509.763 82.769 536.001 70.1691C567.297 55.0833 605.896 59.7316 638.775 69.437C661.166 76.0434 682.415 84.7781 704.312 91.0951C714.596 94.0748 725.033 96.4926 735.794 97.974C804.293 107.356 877.867 73.6937 927.023 21.0466C976.231 -31.6515 1004.26 -100.491 1019.5 -170.846" stroke="url(#paint16_linear)" stroke-width="0.8669" stroke-miterlimit="10"/>
        <path opacity="0.54" d="M81.2137 700.589C58.7894 671.915 67.1666 628.31 90.7318 600.998C92.8431 598.564 95.0396 596.231 97.3552 594.017C120.852 571.423 152.658 559.793 184.414 551.467C190.526 549.867 196.656 548.385 202.803 546.938C231.663 540.144 261.12 533.913 287.971 520.972C296.638 516.801 304.896 511.999 312.694 506.499C365.664 469.177 393.401 403.521 410.224 340.164C411.45 335.567 412.625 330.952 413.782 326.338C430.911 258.146 447.376 190.362 478.91 135.399C492.668 111.408 507.192 85.9871 533.839 72.8423C565.645 57.0925 605.164 62.1324 638.605 72.6039C661.37 79.7211 682.943 89.12 705.231 96.0329C715.703 99.285 726.327 101.975 737.31 103.678C807.188 114.49 882.685 80.2831 932.727 26.4441C982.82 -27.4459 1010.9 -97.9882 1026.14 -169.859" stroke="url(#paint17_linear)" stroke-width="0.8669" stroke-miterlimit="10"/>
        <path opacity="0.54" d="M85.2661 709.681C62.8247 681.059 70.9125 637.555 94.1712 609.989C96.2485 607.52 98.4279 605.17 100.71 602.94C123.968 580.09 155.57 568.086 187.223 559.385C193.302 557.716 199.431 556.15 205.544 554.651C234.302 547.534 263.674 541.03 290.457 527.953C299.089 523.748 307.313 518.895 315.095 513.378C367.929 475.834 395.427 410.195 411.739 346.736C412.931 342.122 414.072 337.508 415.179 332.894C431.678 264.616 446.866 196.559 476.833 140.66C490.233 115.665 504.604 89.2051 531.676 75.4815C563.993 59.0506 604.432 64.4821 638.435 75.7199C661.591 83.3649 683.488 93.4108 706.134 100.937C716.775 104.461 727.587 107.424 738.791 109.348C810.066 121.573 887.47 86.8555 938.397 31.7906C989.375 -23.2913 1017.5 -95.5363 1032.76 -168.922" stroke="url(#paint18_linear)" stroke-width="0.8669" stroke-miterlimit="10"/>
        <path opacity="0.54" d="M89.3356 718.773C66.8942 690.185 74.6584 646.801 97.6106 618.979C99.6538 616.493 101.816 614.126 104.064 611.862C127.067 588.756 158.482 576.361 190.032 567.285C196.094 565.549 202.19 563.914 208.302 562.33C236.958 554.907 266.262 548.096 292.943 534.883C301.541 530.626 309.748 525.757 317.496 520.223C370.211 482.475 397.437 416.853 413.272 353.275C414.412 348.66 415.536 344.029 416.609 339.398C432.478 271.035 446.338 202.723 474.79 145.888C487.798 119.888 502.05 92.3721 529.548 78.1036C562.376 60.9916 603.734 66.8318 638.299 78.8187C661.847 86.9746 684.05 97.6845 707.07 105.806C717.899 109.62 728.898 112.838 740.324 114.984C812.977 128.622 892.305 93.3767 944.118 37.12C995.982 -19.1708 1024.18 -93.1015 1039.43 -168.003" stroke="url(#paint19_linear)" stroke-width="0.8669" stroke-miterlimit="10"/>
        <path opacity="0.54" d="M93.405 727.883C70.9465 699.346 78.4043 656.063 101.05 627.986C103.076 625.483 105.205 623.082 107.435 620.801C130.2 597.457 161.41 584.67 192.842 575.203C198.886 573.381 204.965 571.695 211.044 570.044C239.598 562.296 268.833 555.213 295.412 541.864C303.976 537.573 312.149 532.67 319.879 527.102C372.475 489.149 399.446 423.528 414.77 359.847C415.877 355.216 416.949 350.584 417.988 345.953C433.21 277.505 445.725 208.938 472.695 151.166C485.312 124.161 499.462 95.6073 527.352 80.7598C560.69 62.9838 602.968 69.2156 638.111 81.9687C662.034 90.6354 684.561 102.009 707.972 110.727C718.972 114.814 730.176 118.304 741.805 120.671C815.838 135.74 897.09 99.9661 949.788 42.5005C1002.54 -14.9822 1030.78 -90.6326 1046.06 -167.032" stroke="url(#paint20_linear)" stroke-width="0.8669" stroke-miterlimit="10"/>
        <path opacity="0.54" d="M97.4744 736.975C75.016 708.472 82.1672 665.292 104.506 636.993C106.499 634.473 108.61 632.038 110.806 629.74C133.316 606.141 164.339 592.962 195.668 583.137C201.696 581.247 207.74 579.477 213.802 577.757C242.271 569.686 271.404 562.33 297.898 548.845C306.428 544.503 314.584 539.583 322.297 533.981C374.774 495.807 401.489 430.219 416.302 366.419C417.375 361.788 418.414 357.14 419.401 352.508C433.993 283.958 445.112 215.136 470.635 156.427C482.826 128.401 496.89 98.8083 525.206 83.416C559.056 64.9589 602.253 71.5993 637.958 85.1016C662.272 94.2791 685.105 106.334 708.892 115.631C720.062 119.99 731.453 123.753 743.303 126.341C818.715 142.823 901.874 106.521 955.475 47.8639C1009.11 -10.8277 1037.41 -88.1637 1052.7 -166.079" stroke="url(#paint21_linear)" stroke-width="0.8669" stroke-miterlimit="10"/>
        <path opacity="0.54" d="M101.527 746.067C79.0513 717.616 85.8961 674.538 107.929 645.984C109.904 643.429 111.981 640.995 114.144 638.662C136.398 614.807 167.233 601.254 198.461 591.038C204.454 589.08 210.499 587.241 216.526 585.453C244.893 577.059 273.958 569.431 300.349 555.809C308.846 551.433 316.985 546.479 324.664 540.843C377.021 502.464 403.481 436.877 417.784 372.975C418.822 368.326 419.81 363.678 420.763 359.047C434.725 290.412 444.397 221.334 468.524 161.688C480.272 132.658 494.268 102.026 523.01 86.0552C557.387 66.917 601.487 73.9661 637.754 88.2176C662.443 97.9229 685.599 110.625 709.777 120.518C721.134 125.166 732.713 129.184 744.785 131.994C821.576 149.889 906.659 113.077 961.145 53.2104C1015.66 -6.67311 1044.01 -85.7118 1059.3 -165.142" stroke="url(#paint22_linear)" stroke-width="0.8669" stroke-miterlimit="10"/>
        <path opacity="0.54" d="M105.596 755.16C83.1208 726.742 89.642 683.783 111.385 654.974C113.326 652.403 115.37 649.934 117.532 647.584C139.548 623.474 170.179 609.529 201.304 598.955C207.281 596.929 213.291 595.005 219.302 593.166C247.566 584.465 276.563 576.531 302.852 562.79C311.315 558.363 319.42 553.391 327.082 547.721C379.303 509.139 405.524 443.568 419.316 379.547C420.321 374.899 421.274 370.233 422.177 365.585C435.509 296.865 443.733 227.548 466.463 166.933C477.735 136.88 491.697 105.21 520.847 88.6943C555.735 68.8921 600.754 76.3328 637.6 91.3335C662.681 101.55 686.144 114.916 710.697 125.404C722.224 130.325 733.99 134.599 746.283 137.647C824.453 156.972 911.461 119.615 966.832 58.5568C1022.22 -2.53561 1050.64 -83.2599 1065.95 -164.206" stroke="url(#paint23_linear)" stroke-width="0.8669" stroke-miterlimit="10"/>
        <path opacity="0.54" d="M109.666 764.269C87.1731 735.902 93.405 693.046 114.825 663.998C116.732 661.41 118.758 658.907 120.886 656.54C142.647 632.192 173.091 617.855 204.097 606.89C210.056 604.795 216.049 602.803 222.043 600.879C250.205 591.855 279.117 583.648 305.321 569.771C313.75 565.31 321.837 560.304 329.482 554.6C381.585 515.796 407.551 450.26 420.831 386.12C421.802 381.454 422.704 376.789 423.573 372.14C436.275 303.335 443 233.78 464.403 172.211C475.198 141.154 489.143 108.428 518.702 91.3505C554.101 70.8672 600.039 78.7166 637.447 94.4835C662.902 105.21 686.689 119.241 711.616 130.325C723.331 135.535 735.284 140.064 747.798 143.334C827.348 164.072 916.279 126.204 972.536 63.9373C1028.81 1.65301 1057.28 -80.774 1072.6 -163.235" stroke="url(#paint24_linear)" stroke-width="0.8669" stroke-miterlimit="10"/>
        <path opacity="0.54" d="M113.735 773.361C91.2426 745.029 97.1509 702.291 118.281 672.988C120.171 670.366 122.163 667.863 124.275 665.445C145.797 640.841 176.036 626.113 206.94 614.773C212.865 612.594 218.842 610.551 224.818 608.558C252.879 599.211 281.722 590.731 307.841 576.718C316.235 572.223 324.289 567.166 331.917 561.462C383.9 522.454 409.611 456.917 422.398 392.675C423.334 388.01 424.203 383.344 425.02 378.679C437.092 309.788 442.302 240.012 462.377 177.455C472.661 145.377 486.606 111.629 516.591 93.9897C552.5 72.8253 599.358 81.0833 637.328 97.5993C663.175 108.837 687.285 123.548 712.587 135.212C724.472 140.694 736.629 145.496 749.348 148.986C830.276 171.155 921.132 132.743 978.291 69.2667C1035.45 5.79054 1063.97 -78.3392 1079.31 -162.316" stroke="url(#paint25_linear)" stroke-width="0.8669" stroke-miterlimit="10"/>
        <path opacity="0.54" d="M117.787 782.454C95.278 754.172 100.897 711.52 121.704 681.978C123.56 679.339 125.535 676.802 127.612 674.367C148.879 649.508 178.931 634.405 209.732 622.691C215.641 620.443 221.6 618.315 227.543 616.272C255.501 606.6 284.276 597.831 310.293 583.699C318.653 579.153 326.69 574.079 334.284 568.341C386.148 529.128 411.603 463.609 423.879 399.247C424.765 394.565 425.599 389.9 426.382 385.217C437.824 316.241 441.502 246.261 460.266 182.717C470.039 149.633 483.984 114.831 514.377 96.6289C550.798 74.8004 598.575 83.4501 637.107 100.715C663.328 112.464 687.762 127.839 713.438 140.098C725.493 145.854 737.838 150.927 750.778 154.639C833.086 178.222 925.865 139.281 983.91 74.6131C1041.95 9.9281 1070.53 -75.8873 1085.88 -161.379" stroke="url(#paint26_linear)" stroke-width="0.8669" stroke-miterlimit="10"/>
        <path opacity="0.54" d="M121.857 791.546C99.3473 763.299 104.643 720.765 125.143 690.968C126.982 688.312 128.923 685.741 130.966 683.289C151.994 658.192 181.842 642.697 212.542 630.591C218.433 628.276 224.359 626.079 230.284 623.951C258.14 613.956 286.83 604.915 312.762 590.646C321.088 586.066 329.108 580.958 336.685 575.186C388.429 535.769 413.612 470.249 425.395 405.786C426.246 401.103 427.046 396.421 427.778 391.738C438.591 322.677 440.702 252.51 458.188 187.944C467.417 153.856 481.413 118.015 512.215 99.251C549.146 76.7415 597.843 85.7827 636.953 103.831C663.566 116.108 688.306 132.13 714.375 144.985C726.617 151.03 739.149 156.359 752.31 160.292C835.997 185.288 930.701 145.836 989.631 79.9595C1048.56 14.0826 1077.18 -73.4355 1092.56 -160.443" stroke="url(#paint27_linear)" stroke-width="0.8669" stroke-miterlimit="10"/>
        <path opacity="0.54" d="M125.926 800.655C103.4 772.459 108.389 730.028 128.6 699.993C130.404 697.319 132.328 694.731 134.355 692.245C155.127 666.892 184.788 651.006 215.385 638.543C221.26 636.159 227.168 633.877 233.059 631.698C260.83 621.397 289.435 612.066 315.265 597.661C323.557 593.03 331.543 587.905 339.103 582.099C390.711 542.46 415.655 476.975 426.927 412.392C427.744 407.692 428.494 403.01 429.192 398.328C439.374 329.182 439.902 258.844 456.128 193.256C464.812 158.164 478.842 121.267 510.069 101.941C547.511 78.7506 597.128 88.2005 636.8 106.998C663.805 119.785 688.851 136.472 715.294 149.923C727.707 156.24 740.443 161.842 753.809 165.996C838.875 192.422 935.502 152.426 995.318 85.357C1055.13 18.2712 1083.81 -70.9325 1099.18 -159.455" stroke="url(#paint28_linear)" stroke-width="0.8669" stroke-miterlimit="10"/>
        <path opacity="0.54" d="M129.979 809.748C107.452 781.585 112.135 739.274 132.022 708.983C133.793 706.276 135.7 703.671 137.692 701.168C158.209 675.559 187.683 659.298 218.161 646.443C224.001 643.974 229.892 641.642 235.784 639.377C263.452 628.752 291.989 619.132 317.717 604.608C325.975 599.943 333.943 594.784 341.469 588.943C392.959 549.101 417.647 483.615 428.408 418.93C429.192 414.231 429.907 409.531 430.554 404.849C440.106 335.618 439.033 265.127 454.017 198.483C462.122 162.404 476.22 124.451 507.856 104.563C545.809 80.7087 596.344 90.5502 636.579 110.097C663.958 123.395 689.328 140.745 716.145 154.81C728.745 161.399 741.652 167.273 755.239 171.649C841.684 199.488 940.236 158.981 1000.94 90.7035C1061.64 22.4258 1090.36 -68.4806 1105.75 -158.519" stroke="url(#paint29_linear)" stroke-width="0.8669" stroke-miterlimit="10"/>
        <path opacity="0.54" d="M134.048 818.84C111.522 790.729 115.88 748.519 135.478 717.973C137.232 715.249 139.088 712.61 141.08 710.09C161.359 684.226 190.628 667.574 221.004 654.361C226.827 651.824 232.702 649.423 238.559 647.09C266.125 636.142 294.577 626.249 320.22 611.589C328.461 606.89 336.378 601.697 343.904 595.839C395.274 555.792 419.708 490.324 429.975 425.52C430.724 420.803 431.388 416.104 432.001 411.404C440.923 342.071 438.25 271.461 451.991 203.762C459.517 166.694 473.683 127.669 505.744 107.22C544.208 82.6839 595.663 92.934 636.46 113.23C664.23 127.039 689.907 145.07 717.116 159.713C729.886 166.592 742.997 172.722 756.806 177.319C844.63 206.571 945.106 165.537 1006.69 96.067C1068.28 26.5804 1097.07 -66.0117 1112.46 -157.565" stroke="url(#paint30_linear)" stroke-width="0.8669" stroke-miterlimit="10"/>
        <path opacity="0.54" d="M138.118 827.932C113.565 797.352 120.563 750.137 144.434 719.012C168.306 687.904 205.016 669.668 241.3 654.786C277.585 639.905 315.469 626.913 346.305 602.701C401.268 559.521 425.105 487.344 433.38 417.943C441.672 348.524 437.365 277.795 449.896 209.023C456.826 170.968 471.095 130.887 503.565 109.876C542.54 84.659 594.914 95.3178 636.289 116.38C677.665 137.442 714.392 167.903 758.287 183.006C847.491 213.688 949.89 172.126 1012.36 101.447C1074.83 30.7689 1103.68 -63.5258 1119.09 -156.595" stroke="url(#paint31_linear)" stroke-width="0.8669" stroke-miterlimit="10"/>
    </g>
    <defs>
        <linearGradient id="paint0_linear" x1="890.057" y1="-212.776" x2="21.612" y2="557.769" gradientUnits="userSpaceOnUse">
            <stop stop-color="#7ED4EF"/>
            <stop offset="0.2294" stop-color="#66BFE6"/>
            <stop offset="0.711" stop-color="#298BD0"/>
            <stop offset="1" stop-color="#0169C2"/>
        </linearGradient>
        <linearGradient id="paint1_linear" x1="898.907" y1="-209.343" x2="24.9733" y2="566.073" gradientUnits="userSpaceOnUse">
            <stop stop-color="#7ED4EF"/>
            <stop offset="0.2294" stop-color="#66BFE6"/>
            <stop offset="0.711" stop-color="#298BD0"/>
            <stop offset="1" stop-color="#0169C2"/>
        </linearGradient>
        <linearGradient id="paint2_linear" x1="907.756" y1="-205.912" x2="28.3325" y2="574.375" gradientUnits="userSpaceOnUse">
            <stop stop-color="#7ED4EF"/>
            <stop offset="0.2294" stop-color="#66BFE6"/>
            <stop offset="0.711" stop-color="#298BD0"/>
            <stop offset="1" stop-color="#0169C2"/>
        </linearGradient>
        <linearGradient id="paint3_linear" x1="915.908" y1="-203.264" x2="30.9962" y2="581.892" gradientUnits="userSpaceOnUse">
            <stop stop-color="#7ED4EF"/>
            <stop offset="0.2294" stop-color="#66BFE6"/>
            <stop offset="0.711" stop-color="#298BD0"/>
            <stop offset="1" stop-color="#0169C2"/>
        </linearGradient>
        <linearGradient id="paint4_linear" x1="922.87" y1="-201.958" x2="32.4698" y2="588.068" gradientUnits="userSpaceOnUse">
            <stop stop-color="#7ED4EF"/>
            <stop offset="0.2294" stop-color="#66BFE6"/>
            <stop offset="0.711" stop-color="#298BD0"/>
            <stop offset="1" stop-color="#0169C2"/>
        </linearGradient>
        <linearGradient id="paint5_linear" x1="929.762" y1="-200.731" x2="33.873" y2="594.165" gradientUnits="userSpaceOnUse">
            <stop stop-color="#7ED4EF"/>
            <stop offset="0.2294" stop-color="#66BFE6"/>
            <stop offset="0.711" stop-color="#298BD0"/>
            <stop offset="1" stop-color="#0169C2"/>
        </linearGradient>
        <linearGradient id="paint6_linear" x1="936.577" y1="-199.589" x2="35.2006" y2="600.176" gradientUnits="userSpaceOnUse">
            <stop stop-color="#7ED4EF"/>
            <stop offset="0.2294" stop-color="#66BFE6"/>
            <stop offset="0.711" stop-color="#298BD0"/>
            <stop offset="1" stop-color="#0169C2"/>
        </linearGradient>
        <linearGradient id="paint7_linear" x1="943.312" y1="-198.538" x2="36.4472" y2="606.097" gradientUnits="userSpaceOnUse">
            <stop stop-color="#7ED4EF"/>
            <stop offset="0.2294" stop-color="#66BFE6"/>
            <stop offset="0.711" stop-color="#298BD0"/>
            <stop offset="1" stop-color="#0169C2"/>
        </linearGradient>
        <linearGradient id="paint8_linear" x1="949.871" y1="-197.684" x2="37.5185" y2="611.82" gradientUnits="userSpaceOnUse">
            <stop stop-color="#7ED4EF"/>
            <stop offset="0.2294" stop-color="#66BFE6"/>
            <stop offset="0.711" stop-color="#298BD0"/>
            <stop offset="1" stop-color="#0169C2"/>
        </linearGradient>
        <linearGradient id="paint9_linear" x1="956.287" y1="-196.991" x2="38.4473" y2="617.382" gradientUnits="userSpaceOnUse">
            <stop stop-color="#7ED4EF"/>
            <stop offset="0.2294" stop-color="#66BFE6"/>
            <stop offset="0.711" stop-color="#298BD0"/>
            <stop offset="1" stop-color="#0169C2"/>
        </linearGradient>
        <linearGradient id="paint10_linear" x1="962.617" y1="-196.396" x2="39.2893" y2="622.846" gradientUnits="userSpaceOnUse">
            <stop stop-color="#7ED4EF"/>
            <stop offset="0.2294" stop-color="#66BFE6"/>
            <stop offset="0.711" stop-color="#298BD0"/>
            <stop offset="1" stop-color="#0169C2"/>
        </linearGradient>
        <linearGradient id="paint11_linear" x1="968.886" y1="-195.868" x2="40.071" y2="628.243" gradientUnits="userSpaceOnUse">
            <stop stop-color="#7ED4EF"/>
            <stop offset="0.2294" stop-color="#66BFE6"/>
            <stop offset="0.711" stop-color="#298BD0"/>
            <stop offset="1" stop-color="#0169C2"/>
        </linearGradient>
        <linearGradient id="paint12_linear" x1="975.111" y1="-195.389" x2="40.8094" y2="633.59" gradientUnits="userSpaceOnUse">
            <stop stop-color="#7ED4EF"/>
            <stop offset="0.2294" stop-color="#66BFE6"/>
            <stop offset="0.711" stop-color="#298BD0"/>
            <stop offset="1" stop-color="#0169C2"/>
        </linearGradient>
        <linearGradient id="paint13_linear" x1="981.304" y1="-194.947" x2="41.515" y2="638.901" gradientUnits="userSpaceOnUse">
            <stop stop-color="#7ED4EF"/>
            <stop offset="0.2294" stop-color="#66BFE6"/>
            <stop offset="0.711" stop-color="#298BD0"/>
            <stop offset="1" stop-color="#0169C2"/>
        </linearGradient>
        <linearGradient id="paint14_linear" x1="987.472" y1="-194.533" x2="42.1956" y2="644.183" gradientUnits="userSpaceOnUse">
            <stop stop-color="#7ED4EF"/>
            <stop offset="0.2294" stop-color="#66BFE6"/>
            <stop offset="0.711" stop-color="#298BD0"/>
            <stop offset="1" stop-color="#0169C2"/>
        </linearGradient>
        <linearGradient id="paint15_linear" x1="993.619" y1="-194.141" x2="42.8563" y2="649.443" gradientUnits="userSpaceOnUse">
            <stop stop-color="#7ED4EF"/>
            <stop offset="0.2294" stop-color="#66BFE6"/>
            <stop offset="0.711" stop-color="#298BD0"/>
            <stop offset="1" stop-color="#0169C2"/>
        </linearGradient>
        <linearGradient id="paint16_linear" x1="999.751" y1="-193.767" x2="43.5014" y2="654.685" gradientUnits="userSpaceOnUse">
            <stop stop-color="#7ED4EF"/>
            <stop offset="0.2294" stop-color="#66BFE6"/>
            <stop offset="0.711" stop-color="#298BD0"/>
            <stop offset="1" stop-color="#0169C2"/>
        </linearGradient>
        <linearGradient id="paint17_linear" x1="1005.87" y1="-193.408" x2="44.1332" y2="659.913" gradientUnits="userSpaceOnUse">
            <stop stop-color="#7ED4EF"/>
            <stop offset="0.2294" stop-color="#66BFE6"/>
            <stop offset="0.711" stop-color="#298BD0"/>
            <stop offset="1" stop-color="#0169C2"/>
        </linearGradient>
        <linearGradient id="paint18_linear" x1="1011.98" y1="-193.061" x2="44.7547" y2="665.128" gradientUnits="userSpaceOnUse">
            <stop stop-color="#7ED4EF"/>
            <stop offset="0.2294" stop-color="#66BFE6"/>
            <stop offset="0.711" stop-color="#298BD0"/>
            <stop offset="1" stop-color="#0169C2"/>
        </linearGradient>
        <linearGradient id="paint19_linear" x1="1018.08" y1="-192.723" x2="45.3671" y2="670.334" gradientUnits="userSpaceOnUse">
            <stop stop-color="#7ED4EF"/>
            <stop offset="0.2294" stop-color="#66BFE6"/>
            <stop offset="0.711" stop-color="#298BD0"/>
            <stop offset="1" stop-color="#0169C2"/>
        </linearGradient>
        <linearGradient id="paint20_linear" x1="1024.17" y1="-192.393" x2="45.9723" y2="675.531" gradientUnits="userSpaceOnUse">
            <stop stop-color="#7ED4EF"/>
            <stop offset="0.2294" stop-color="#66BFE6"/>
            <stop offset="0.711" stop-color="#298BD0"/>
            <stop offset="1" stop-color="#0169C2"/>
        </linearGradient>
        <linearGradient id="paint21_linear" x1="1030.25" y1="-192.071" x2="46.5712" y2="680.722" gradientUnits="userSpaceOnUse">
            <stop stop-color="#7ED4EF"/>
            <stop offset="0.2294" stop-color="#66BFE6"/>
            <stop offset="0.711" stop-color="#298BD0"/>
            <stop offset="1" stop-color="#0169C2"/>
        </linearGradient>
        <linearGradient id="paint22_linear" x1="1036.33" y1="-191.755" x2="47.1647" y2="685.906" gradientUnits="userSpaceOnUse">
            <stop stop-color="#7ED4EF"/>
            <stop offset="0.2294" stop-color="#66BFE6"/>
            <stop offset="0.711" stop-color="#298BD0"/>
            <stop offset="1" stop-color="#0169C2"/>
        </linearGradient>
        <linearGradient id="paint23_linear" x1="1042.41" y1="-191.444" x2="47.7535" y2="691.085" gradientUnits="userSpaceOnUse">
            <stop stop-color="#7ED4EF"/>
            <stop offset="0.2294" stop-color="#66BFE6"/>
            <stop offset="0.711" stop-color="#298BD0"/>
            <stop offset="1" stop-color="#0169C2"/>
        </linearGradient>
        <linearGradient id="paint24_linear" x1="1048.48" y1="-191.137" x2="48.3382" y2="696.259" gradientUnits="userSpaceOnUse">
            <stop stop-color="#7ED4EF"/>
            <stop offset="0.2294" stop-color="#66BFE6"/>
            <stop offset="0.711" stop-color="#298BD0"/>
            <stop offset="1" stop-color="#0169C2"/>
        </linearGradient>
        <linearGradient id="paint25_linear" x1="1054.55" y1="-190.835" x2="48.9196" y2="701.43" gradientUnits="userSpaceOnUse">
            <stop stop-color="#7ED4EF"/>
            <stop offset="0.2294" stop-color="#66BFE6"/>
            <stop offset="0.711" stop-color="#298BD0"/>
            <stop offset="1" stop-color="#0169C2"/>
        </linearGradient>
        <linearGradient id="paint26_linear" x1="1060.61" y1="-190.535" x2="49.4976" y2="706.597" gradientUnits="userSpaceOnUse">
            <stop stop-color="#7ED4EF"/>
            <stop offset="0.2294" stop-color="#66BFE6"/>
            <stop offset="0.711" stop-color="#298BD0"/>
            <stop offset="1" stop-color="#0169C2"/>
        </linearGradient>
        <linearGradient id="paint27_linear" x1="1066.67" y1="-190.24" x2="50.0728" y2="711.76" gradientUnits="userSpaceOnUse">
            <stop stop-color="#7ED4EF"/>
            <stop offset="0.2294" stop-color="#66BFE6"/>
            <stop offset="0.711" stop-color="#298BD0"/>
            <stop offset="1" stop-color="#0169C2"/>
        </linearGradient>
        <linearGradient id="paint28_linear" x1="1072.73" y1="-189.946" x2="50.6456" y2="716.921" gradientUnits="userSpaceOnUse">
            <stop stop-color="#7ED4EF"/>
            <stop offset="0.2294" stop-color="#66BFE6"/>
            <stop offset="0.711" stop-color="#298BD0"/>
            <stop offset="1" stop-color="#0169C2"/>
        </linearGradient>
        <linearGradient id="paint29_linear" x1="1078.79" y1="-189.655" x2="51.2161" y2="722.079" gradientUnits="userSpaceOnUse">
            <stop stop-color="#7ED4EF"/>
            <stop offset="0.2294" stop-color="#66BFE6"/>
            <stop offset="0.711" stop-color="#298BD0"/>
            <stop offset="1" stop-color="#0169C2"/>
        </linearGradient>
        <linearGradient id="paint30_linear" x1="1084.84" y1="-189.367" x2="51.7848" y2="727.236" gradientUnits="userSpaceOnUse">
            <stop stop-color="#7ED4EF"/>
            <stop offset="0.2294" stop-color="#66BFE6"/>
            <stop offset="0.711" stop-color="#298BD0"/>
            <stop offset="1" stop-color="#0169C2"/>
        </linearGradient>
        <linearGradient id="paint31_linear" x1="1090.9" y1="-189.08" x2="52.3517" y2="732.39" gradientUnits="userSpaceOnUse">
            <stop stop-color="#7ED4EF"/>
            <stop offset="0.2294" stop-color="#66BFE6"/>
            <stop offset="0.711" stop-color="#298BD0"/>
            <stop offset="1" stop-color="#0169C2"/>
        </linearGradient>
    </defs>
</svg>
