<svg width="100%" height="100%" viewBox="0 0 279 181" fill="none" xmlns="http://www.w3.org/2000/svg">
    <g opacity="0.5">
        <path
            d="M1.2 2.40002C1.86274 2.40002 2.4 1.86275 2.4 1.20001C2.4 0.53727 1.86274 0 1.2 0C0.537255 0 0 0.53727 0 1.20001C0 1.86275 0.537255 2.40002 1.2 2.40002Z"
            fill="white"/>
        <path
            d="M14.98 2.40002C15.6427 2.40002 16.18 1.86275 16.18 1.20001C16.18 0.53727 15.6427 0 14.98 0C14.3173 0 13.78 0.53727 13.78 1.20001C13.78 1.86275 14.3173 2.40002 14.98 2.40002Z"
            fill="white"/>
        <path
            d="M28.76 2.40002C29.4227 2.40002 29.96 1.86275 29.96 1.20001C29.96 0.53727 29.4227 0 28.76 0C28.0973 0 27.56 0.53727 27.56 1.20001C27.56 1.86275 28.0973 2.40002 28.76 2.40002Z"
            fill="white"/>
        <path
            d="M42.54 2.40002C43.2027 2.40002 43.74 1.86275 43.74 1.20001C43.74 0.53727 43.2027 0 42.54 0C41.8773 0 41.34 0.53727 41.34 1.20001C41.34 1.86275 41.8773 2.40002 42.54 2.40002Z"
            fill="white"/>
        <path
            d="M56.32 2.40002C56.9827 2.40002 57.52 1.86275 57.52 1.20001C57.52 0.53727 56.9827 0 56.32 0C55.6573 0 55.12 0.53727 55.12 1.20001C55.12 1.86275 55.6573 2.40002 56.32 2.40002Z"
            fill="white"/>
        <path
            d="M70.1 2.40002C70.7627 2.40002 71.3 1.86275 71.3 1.20001C71.3 0.53727 70.7627 0 70.1 0C69.4372 0 68.9 0.53727 68.9 1.20001C68.9 1.86275 69.4372 2.40002 70.1 2.40002Z"
            fill="white"/>
        <path
            d="M83.89 2.40002C84.5527 2.40002 85.09 1.86275 85.09 1.20001C85.09 0.53727 84.5527 0 83.89 0C83.2273 0 82.69 0.53727 82.69 1.20001C82.69 1.86275 83.2273 2.40002 83.89 2.40002Z"
            fill="white"/>
        <path
            d="M97.67 2.40002C98.3327 2.40002 98.87 1.86275 98.87 1.20001C98.87 0.53727 98.3327 0 97.67 0C97.0073 0 96.47 0.53727 96.47 1.20001C96.47 1.86275 97.0073 2.40002 97.67 2.40002Z"
            fill="white"/>
        <path
            d="M112.65 1.20001C112.65 1.86001 112.11 2.40002 111.45 2.40002C110.79 2.40002 110.25 1.86001 110.25 1.20001C110.25 0.540012 110.79 0 111.45 0C112.11 0 112.65 0.540012 112.65 1.20001Z"
            fill="white"/>
        <path
            d="M125.23 2.40002C125.893 2.40002 126.43 1.86275 126.43 1.20001C126.43 0.53727 125.893 0 125.23 0C124.567 0 124.03 0.53727 124.03 1.20001C124.03 1.86275 124.567 2.40002 125.23 2.40002Z"
            fill="white"/>
        <path
            d="M139.01 2.40002C139.673 2.40002 140.21 1.86275 140.21 1.20001C140.21 0.53727 139.673 0 139.01 0C138.347 0 137.81 0.53727 137.81 1.20001C137.81 1.86275 138.347 2.40002 139.01 2.40002Z"
            fill="white"/>
        <path
            d="M152.79 2.40002C153.453 2.40002 153.99 1.86275 153.99 1.20001C153.99 0.53727 153.453 0 152.79 0C152.127 0 151.59 0.53727 151.59 1.20001C151.59 1.86275 152.127 2.40002 152.79 2.40002Z"
            fill="white"/>
        <path
            d="M166.58 2.40002C167.243 2.40002 167.78 1.86275 167.78 1.20001C167.78 0.53727 167.243 0 166.58 0C165.917 0 165.38 0.53727 165.38 1.20001C165.38 1.86275 165.917 2.40002 166.58 2.40002Z"
            fill="white"/>
        <path
            d="M180.36 2.40002C181.023 2.40002 181.56 1.86275 181.56 1.20001C181.56 0.53727 181.023 0 180.36 0C179.697 0 179.16 0.53727 179.16 1.20001C179.16 1.86275 179.697 2.40002 180.36 2.40002Z"
            fill="white"/>
        <path
            d="M194.14 2.40002C194.803 2.40002 195.34 1.86275 195.34 1.20001C195.34 0.53727 194.803 0 194.14 0C193.477 0 192.94 0.53727 192.94 1.20001C192.94 1.86275 193.477 2.40002 194.14 2.40002Z"
            fill="white"/>
        <path
            d="M207.92 2.40002C208.583 2.40002 209.12 1.86275 209.12 1.20001C209.12 0.53727 208.583 0 207.92 0C207.257 0 206.72 0.53727 206.72 1.20001C206.72 1.86275 207.257 2.40002 207.92 2.40002Z"
            fill="white"/>
        <path
            d="M221.7 2.40002C222.363 2.40002 222.9 1.86275 222.9 1.20001C222.9 0.53727 222.363 0 221.7 0C221.037 0 220.5 0.53727 220.5 1.20001C220.5 1.86275 221.037 2.40002 221.7 2.40002Z"
            fill="white"/>
        <path
            d="M235.48 2.40002C236.143 2.40002 236.68 1.86275 236.68 1.20001C236.68 0.53727 236.143 0 235.48 0C234.817 0 234.28 0.53727 234.28 1.20001C234.28 1.86275 234.817 2.40002 235.48 2.40002Z"
            fill="white"/>
        <path
            d="M250.46 1.20001C250.46 1.86001 249.92 2.40002 249.26 2.40002C248.6 2.40002 248.06 1.86001 248.06 1.20001C248.06 0.540012 248.6 0 249.26 0C249.93 0 250.46 0.540012 250.46 1.20001Z"
            fill="white"/>
        <path
            d="M263.05 2.40002C263.713 2.40002 264.25 1.86275 264.25 1.20001C264.25 0.53727 263.713 0 263.05 0C262.387 0 261.85 0.53727 261.85 1.20001C261.85 1.86275 262.387 2.40002 263.05 2.40002Z"
            fill="white"/>
        <path
            d="M276.83 2.40002C277.493 2.40002 278.03 1.86275 278.03 1.20001C278.03 0.53727 277.493 0 276.83 0C276.167 0 275.63 0.53727 275.63 1.20001C275.63 1.86275 276.167 2.40002 276.83 2.40002Z"
            fill="white"/>
        <path
            d="M1.2 15.88C1.86274 15.88 2.4 15.3427 2.4 14.68C2.4 14.0173 1.86274 13.48 1.2 13.48C0.537255 13.48 0 14.0173 0 14.68C0 15.3427 0.537255 15.88 1.2 15.88Z"
            fill="white"/>
        <path
            d="M14.98 15.88C15.6427 15.88 16.18 15.3427 16.18 14.68C16.18 14.0173 15.6427 13.48 14.98 13.48C14.3173 13.48 13.78 14.0173 13.78 14.68C13.78 15.3427 14.3173 15.88 14.98 15.88Z"
            fill="white"/>
        <path
            d="M28.76 15.88C29.4227 15.88 29.96 15.3427 29.96 14.68C29.96 14.0173 29.4227 13.48 28.76 13.48C28.0973 13.48 27.56 14.0173 27.56 14.68C27.56 15.3427 28.0973 15.88 28.76 15.88Z"
            fill="white"/>
        <path
            d="M42.54 15.88C43.2027 15.88 43.74 15.3427 43.74 14.68C43.74 14.0173 43.2027 13.48 42.54 13.48C41.8773 13.48 41.34 14.0173 41.34 14.68C41.34 15.3427 41.8773 15.88 42.54 15.88Z"
            fill="white"/>
        <path
            d="M56.32 15.88C56.9827 15.88 57.52 15.3427 57.52 14.68C57.52 14.0173 56.9827 13.48 56.32 13.48C55.6573 13.48 55.12 14.0173 55.12 14.68C55.12 15.3427 55.6573 15.88 56.32 15.88Z"
            fill="white"/>
        <path
            d="M70.1 15.88C70.7627 15.88 71.3 15.3427 71.3 14.68C71.3 14.0173 70.7627 13.48 70.1 13.48C69.4372 13.48 68.9 14.0173 68.9 14.68C68.9 15.3427 69.4372 15.88 70.1 15.88Z"
            fill="white"/>
        <path
            d="M83.89 15.88C84.5527 15.88 85.09 15.3427 85.09 14.68C85.09 14.0173 84.5527 13.48 83.89 13.48C83.2273 13.48 82.69 14.0173 82.69 14.68C82.69 15.3427 83.2273 15.88 83.89 15.88Z"
            fill="white"/>
        <path
            d="M97.67 15.88C98.3327 15.88 98.87 15.3427 98.87 14.68C98.87 14.0173 98.3327 13.48 97.67 13.48C97.0073 13.48 96.47 14.0173 96.47 14.68C96.47 15.3427 97.0073 15.88 97.67 15.88Z"
            fill="white"/>
        <path
            d="M112.65 14.68C112.65 15.34 112.11 15.88 111.45 15.88C110.79 15.88 110.25 15.34 110.25 14.68C110.25 14.02 110.79 13.48 111.45 13.48C112.11 13.49 112.65 14.02 112.65 14.68Z"
            fill="white"/>
        <path
            d="M125.23 15.88C125.893 15.88 126.43 15.3427 126.43 14.68C126.43 14.0173 125.893 13.48 125.23 13.48C124.567 13.48 124.03 14.0173 124.03 14.68C124.03 15.3427 124.567 15.88 125.23 15.88Z"
            fill="white"/>
        <path
            d="M139.01 15.88C139.673 15.88 140.21 15.3427 140.21 14.68C140.21 14.0173 139.673 13.48 139.01 13.48C138.347 13.48 137.81 14.0173 137.81 14.68C137.81 15.3427 138.347 15.88 139.01 15.88Z"
            fill="white"/>
        <path
            d="M152.79 15.88C153.453 15.88 153.99 15.3427 153.99 14.68C153.99 14.0173 153.453 13.48 152.79 13.48C152.127 13.48 151.59 14.0173 151.59 14.68C151.59 15.3427 152.127 15.88 152.79 15.88Z"
            fill="white"/>
        <path
            d="M166.58 15.88C167.243 15.88 167.78 15.3427 167.78 14.68C167.78 14.0173 167.243 13.48 166.58 13.48C165.917 13.48 165.38 14.0173 165.38 14.68C165.38 15.3427 165.917 15.88 166.58 15.88Z"
            fill="white"/>
        <path
            d="M180.36 15.88C181.023 15.88 181.56 15.3427 181.56 14.68C181.56 14.0173 181.023 13.48 180.36 13.48C179.697 13.48 179.16 14.0173 179.16 14.68C179.16 15.3427 179.697 15.88 180.36 15.88Z"
            fill="white"/>
        <path
            d="M194.14 15.88C194.803 15.88 195.34 15.3427 195.34 14.68C195.34 14.0173 194.803 13.48 194.14 13.48C193.477 13.48 192.94 14.0173 192.94 14.68C192.94 15.3427 193.477 15.88 194.14 15.88Z"
            fill="white"/>
        <path
            d="M207.92 15.88C208.583 15.88 209.12 15.3427 209.12 14.68C209.12 14.0173 208.583 13.48 207.92 13.48C207.257 13.48 206.72 14.0173 206.72 14.68C206.72 15.3427 207.257 15.88 207.92 15.88Z"
            fill="white"/>
        <path
            d="M221.7 15.88C222.363 15.88 222.9 15.3427 222.9 14.68C222.9 14.0173 222.363 13.48 221.7 13.48C221.037 13.48 220.5 14.0173 220.5 14.68C220.5 15.3427 221.037 15.88 221.7 15.88Z"
            fill="white"/>
        <path
            d="M235.48 15.88C236.143 15.88 236.68 15.3427 236.68 14.68C236.68 14.0173 236.143 13.48 235.48 13.48C234.817 13.48 234.28 14.0173 234.28 14.68C234.28 15.3427 234.817 15.88 235.48 15.88Z"
            fill="white"/>
        <path
            d="M250.46 14.68C250.46 15.34 249.92 15.88 249.26 15.88C248.6 15.88 248.06 15.34 248.06 14.68C248.06 14.02 248.6 13.48 249.26 13.48C249.93 13.49 250.46 14.02 250.46 14.68Z"
            fill="white"/>
        <path
            d="M263.05 15.88C263.713 15.88 264.25 15.3427 264.25 14.68C264.25 14.0173 263.713 13.48 263.05 13.48C262.387 13.48 261.85 14.0173 261.85 14.68C261.85 15.3427 262.387 15.88 263.05 15.88Z"
            fill="white"/>
        <path
            d="M276.83 15.88C277.493 15.88 278.03 15.3427 278.03 14.68C278.03 14.0173 277.493 13.48 276.83 13.48C276.167 13.48 275.63 14.0173 275.63 14.68C275.63 15.3427 276.167 15.88 276.83 15.88Z"
            fill="white"/>
        <path
            d="M1.2 29.37C1.86274 29.37 2.4 28.8327 2.4 28.17C2.4 27.5072 1.86274 26.97 1.2 26.97C0.537255 26.97 0 27.5072 0 28.17C0 28.8327 0.537255 29.37 1.2 29.37Z"
            fill="white"/>
        <path
            d="M14.98 29.37C15.6427 29.37 16.18 28.8327 16.18 28.17C16.18 27.5072 15.6427 26.97 14.98 26.97C14.3173 26.97 13.78 27.5072 13.78 28.17C13.78 28.8327 14.3173 29.37 14.98 29.37Z"
            fill="white"/>
        <path
            d="M28.76 29.37C29.4227 29.37 29.96 28.8327 29.96 28.17C29.96 27.5072 29.4227 26.97 28.76 26.97C28.0973 26.97 27.56 27.5072 27.56 28.17C27.56 28.8327 28.0973 29.37 28.76 29.37Z"
            fill="white"/>
        <path
            d="M42.54 29.37C43.2027 29.37 43.74 28.8327 43.74 28.17C43.74 27.5072 43.2027 26.97 42.54 26.97C41.8773 26.97 41.34 27.5072 41.34 28.17C41.34 28.8327 41.8773 29.37 42.54 29.37Z"
            fill="white"/>
        <path
            d="M56.32 29.37C56.9827 29.37 57.52 28.8327 57.52 28.17C57.52 27.5072 56.9827 26.97 56.32 26.97C55.6573 26.97 55.12 27.5072 55.12 28.17C55.12 28.8327 55.6573 29.37 56.32 29.37Z"
            fill="white"/>
        <path
            d="M70.1 29.37C70.7627 29.37 71.3 28.8327 71.3 28.17C71.3 27.5072 70.7627 26.97 70.1 26.97C69.4372 26.97 68.9 27.5072 68.9 28.17C68.9 28.8327 69.4372 29.37 70.1 29.37Z"
            fill="white"/>
        <path
            d="M83.89 29.37C84.5527 29.37 85.09 28.8327 85.09 28.17C85.09 27.5072 84.5527 26.97 83.89 26.97C83.2273 26.97 82.69 27.5072 82.69 28.17C82.69 28.8327 83.2273 29.37 83.89 29.37Z"
            fill="white"/>
        <path
            d="M97.67 29.37C98.3327 29.37 98.87 28.8327 98.87 28.17C98.87 27.5072 98.3327 26.97 97.67 26.97C97.0073 26.97 96.47 27.5072 96.47 28.17C96.47 28.8327 97.0073 29.37 97.67 29.37Z"
            fill="white"/>
        <path
            d="M112.65 28.17C112.65 28.83 112.11 29.37 111.45 29.37C110.79 29.37 110.25 28.83 110.25 28.17C110.25 27.51 110.79 26.97 111.45 26.97C112.11 26.97 112.65 27.5 112.65 28.17Z"
            fill="white"/>
        <path
            d="M125.23 29.37C125.893 29.37 126.43 28.8327 126.43 28.17C126.43 27.5072 125.893 26.97 125.23 26.97C124.567 26.97 124.03 27.5072 124.03 28.17C124.03 28.8327 124.567 29.37 125.23 29.37Z"
            fill="white"/>
        <path
            d="M139.01 29.37C139.673 29.37 140.21 28.8327 140.21 28.17C140.21 27.5072 139.673 26.97 139.01 26.97C138.347 26.97 137.81 27.5072 137.81 28.17C137.81 28.8327 138.347 29.37 139.01 29.37Z"
            fill="white"/>
        <path
            d="M152.79 29.37C153.453 29.37 153.99 28.8327 153.99 28.17C153.99 27.5072 153.453 26.97 152.79 26.97C152.127 26.97 151.59 27.5072 151.59 28.17C151.59 28.8327 152.127 29.37 152.79 29.37Z"
            fill="white"/>
        <path
            d="M166.58 29.37C167.243 29.37 167.78 28.8327 167.78 28.17C167.78 27.5072 167.243 26.97 166.58 26.97C165.917 26.97 165.38 27.5072 165.38 28.17C165.38 28.8327 165.917 29.37 166.58 29.37Z"
            fill="white"/>
        <path
            d="M180.36 29.37C181.023 29.37 181.56 28.8327 181.56 28.17C181.56 27.5072 181.023 26.97 180.36 26.97C179.697 26.97 179.16 27.5072 179.16 28.17C179.16 28.8327 179.697 29.37 180.36 29.37Z"
            fill="white"/>
        <path
            d="M194.14 29.37C194.803 29.37 195.34 28.8327 195.34 28.17C195.34 27.5072 194.803 26.97 194.14 26.97C193.477 26.97 192.94 27.5072 192.94 28.17C192.94 28.8327 193.477 29.37 194.14 29.37Z"
            fill="white"/>
        <path
            d="M207.92 29.37C208.583 29.37 209.12 28.8327 209.12 28.17C209.12 27.5072 208.583 26.97 207.92 26.97C207.257 26.97 206.72 27.5072 206.72 28.17C206.72 28.8327 207.257 29.37 207.92 29.37Z"
            fill="white"/>
        <path
            d="M221.7 29.37C222.363 29.37 222.9 28.8327 222.9 28.17C222.9 27.5072 222.363 26.97 221.7 26.97C221.037 26.97 220.5 27.5072 220.5 28.17C220.5 28.8327 221.037 29.37 221.7 29.37Z"
            fill="white"/>
        <path
            d="M235.48 29.37C236.143 29.37 236.68 28.8327 236.68 28.17C236.68 27.5072 236.143 26.97 235.48 26.97C234.817 26.97 234.28 27.5072 234.28 28.17C234.28 28.8327 234.817 29.37 235.48 29.37Z"
            fill="white"/>
        <path
            d="M250.46 28.17C250.46 28.83 249.92 29.37 249.26 29.37C248.6 29.37 248.06 28.83 248.06 28.17C248.06 27.51 248.6 26.97 249.26 26.97C249.93 26.97 250.46 27.5 250.46 28.17Z"
            fill="white"/>
        <path
            d="M263.05 29.37C263.713 29.37 264.25 28.8327 264.25 28.17C264.25 27.5072 263.713 26.97 263.05 26.97C262.387 26.97 261.85 27.5072 261.85 28.17C261.85 28.8327 262.387 29.37 263.05 29.37Z"
            fill="white"/>
        <path
            d="M276.83 29.37C277.493 29.37 278.03 28.8327 278.03 28.17C278.03 27.5072 277.493 26.97 276.83 26.97C276.167 26.97 275.63 27.5072 275.63 28.17C275.63 28.8327 276.167 29.37 276.83 29.37Z"
            fill="white"/>
        <path
            d="M1.2 42.85C1.86274 42.85 2.4 42.3128 2.4 41.65C2.4 40.9873 1.86274 40.45 1.2 40.45C0.537255 40.45 0 40.9873 0 41.65C0 42.3128 0.537255 42.85 1.2 42.85Z"
            fill="white"/>
        <path
            d="M14.98 42.85C15.6427 42.85 16.18 42.3128 16.18 41.65C16.18 40.9873 15.6427 40.45 14.98 40.45C14.3173 40.45 13.78 40.9873 13.78 41.65C13.78 42.3128 14.3173 42.85 14.98 42.85Z"
            fill="white"/>
        <path
            d="M28.76 42.85C29.4227 42.85 29.96 42.3128 29.96 41.65C29.96 40.9873 29.4227 40.45 28.76 40.45C28.0973 40.45 27.56 40.9873 27.56 41.65C27.56 42.3128 28.0973 42.85 28.76 42.85Z"
            fill="white"/>
        <path
            d="M42.54 42.85C43.2027 42.85 43.74 42.3128 43.74 41.65C43.74 40.9873 43.2027 40.45 42.54 40.45C41.8773 40.45 41.34 40.9873 41.34 41.65C41.34 42.3128 41.8773 42.85 42.54 42.85Z"
            fill="white"/>
        <path
            d="M56.32 42.85C56.9827 42.85 57.52 42.3128 57.52 41.65C57.52 40.9873 56.9827 40.45 56.32 40.45C55.6573 40.45 55.12 40.9873 55.12 41.65C55.12 42.3128 55.6573 42.85 56.32 42.85Z"
            fill="white"/>
        <path
            d="M70.1 42.85C70.7627 42.85 71.3 42.3128 71.3 41.65C71.3 40.9873 70.7627 40.45 70.1 40.45C69.4372 40.45 68.9 40.9873 68.9 41.65C68.9 42.3128 69.4372 42.85 70.1 42.85Z"
            fill="white"/>
        <path
            d="M83.89 42.85C84.5527 42.85 85.09 42.3128 85.09 41.65C85.09 40.9873 84.5527 40.45 83.89 40.45C83.2273 40.45 82.69 40.9873 82.69 41.65C82.69 42.3128 83.2273 42.85 83.89 42.85Z"
            fill="white"/>
        <path
            d="M97.67 42.85C98.3327 42.85 98.87 42.3128 98.87 41.65C98.87 40.9873 98.3327 40.45 97.67 40.45C97.0073 40.45 96.47 40.9873 96.47 41.65C96.47 42.3128 97.0073 42.85 97.67 42.85Z"
            fill="white"/>
        <path
            d="M112.65 41.65C112.65 42.31 112.11 42.85 111.45 42.85C110.79 42.85 110.25 42.31 110.25 41.65C110.25 40.99 110.79 40.45 111.45 40.45C112.11 40.45 112.65 40.99 112.65 41.65Z"
            fill="white"/>
        <path
            d="M125.23 42.85C125.893 42.85 126.43 42.3128 126.43 41.65C126.43 40.9873 125.893 40.45 125.23 40.45C124.567 40.45 124.03 40.9873 124.03 41.65C124.03 42.3128 124.567 42.85 125.23 42.85Z"
            fill="white"/>
        <path
            d="M139.01 42.85C139.673 42.85 140.21 42.3128 140.21 41.65C140.21 40.9873 139.673 40.45 139.01 40.45C138.347 40.45 137.81 40.9873 137.81 41.65C137.81 42.3128 138.347 42.85 139.01 42.85Z"
            fill="white"/>
        <path
            d="M152.79 42.85C153.453 42.85 153.99 42.3128 153.99 41.65C153.99 40.9873 153.453 40.45 152.79 40.45C152.127 40.45 151.59 40.9873 151.59 41.65C151.59 42.3128 152.127 42.85 152.79 42.85Z"
            fill="white"/>
        <path
            d="M166.58 42.85C167.243 42.85 167.78 42.3128 167.78 41.65C167.78 40.9873 167.243 40.45 166.58 40.45C165.917 40.45 165.38 40.9873 165.38 41.65C165.38 42.3128 165.917 42.85 166.58 42.85Z"
            fill="white"/>
        <path
            d="M180.36 42.85C181.023 42.85 181.56 42.3128 181.56 41.65C181.56 40.9873 181.023 40.45 180.36 40.45C179.697 40.45 179.16 40.9873 179.16 41.65C179.16 42.3128 179.697 42.85 180.36 42.85Z"
            fill="white"/>
        <path
            d="M194.14 42.85C194.803 42.85 195.34 42.3128 195.34 41.65C195.34 40.9873 194.803 40.45 194.14 40.45C193.477 40.45 192.94 40.9873 192.94 41.65C192.94 42.3128 193.477 42.85 194.14 42.85Z"
            fill="white"/>
        <path
            d="M207.92 42.85C208.583 42.85 209.12 42.3128 209.12 41.65C209.12 40.9873 208.583 40.45 207.92 40.45C207.257 40.45 206.72 40.9873 206.72 41.65C206.72 42.3128 207.257 42.85 207.92 42.85Z"
            fill="white"/>
        <path
            d="M221.7 42.85C222.363 42.85 222.9 42.3128 222.9 41.65C222.9 40.9873 222.363 40.45 221.7 40.45C221.037 40.45 220.5 40.9873 220.5 41.65C220.5 42.3128 221.037 42.85 221.7 42.85Z"
            fill="white"/>
        <path
            d="M235.48 42.85C236.143 42.85 236.68 42.3128 236.68 41.65C236.68 40.9873 236.143 40.45 235.48 40.45C234.817 40.45 234.28 40.9873 234.28 41.65C234.28 42.3128 234.817 42.85 235.48 42.85Z"
            fill="white"/>
        <path
            d="M250.46 41.65C250.46 42.31 249.92 42.85 249.26 42.85C248.6 42.85 248.06 42.31 248.06 41.65C248.06 40.99 248.6 40.45 249.26 40.45C249.93 40.45 250.46 40.99 250.46 41.65Z"
            fill="white"/>
        <path
            d="M263.05 42.85C263.713 42.85 264.25 42.3128 264.25 41.65C264.25 40.9873 263.713 40.45 263.05 40.45C262.387 40.45 261.85 40.9873 261.85 41.65C261.85 42.3128 262.387 42.85 263.05 42.85Z"
            fill="white"/>
        <path
            d="M276.83 42.85C277.493 42.85 278.03 42.3128 278.03 41.65C278.03 40.9873 277.493 40.45 276.83 40.45C276.167 40.45 275.63 40.9873 275.63 41.65C275.63 42.3128 276.167 42.85 276.83 42.85Z"
            fill="white"/>
        <path
            d="M1.2 56.33C1.86274 56.33 2.4 55.7927 2.4 55.13C2.4 54.4673 1.86274 53.93 1.2 53.93C0.537255 53.93 0 54.4673 0 55.13C0 55.7927 0.537255 56.33 1.2 56.33Z"
            fill="white"/>
        <path
            d="M14.98 56.33C15.6427 56.33 16.18 55.7927 16.18 55.13C16.18 54.4673 15.6427 53.93 14.98 53.93C14.3173 53.93 13.78 54.4673 13.78 55.13C13.78 55.7927 14.3173 56.33 14.98 56.33Z"
            fill="white"/>
        <path
            d="M28.76 56.33C29.4227 56.33 29.96 55.7927 29.96 55.13C29.96 54.4673 29.4227 53.93 28.76 53.93C28.0973 53.93 27.56 54.4673 27.56 55.13C27.56 55.7927 28.0973 56.33 28.76 56.33Z"
            fill="white"/>
        <path
            d="M42.54 56.33C43.2027 56.33 43.74 55.7927 43.74 55.13C43.74 54.4673 43.2027 53.93 42.54 53.93C41.8773 53.93 41.34 54.4673 41.34 55.13C41.34 55.7927 41.8773 56.33 42.54 56.33Z"
            fill="white"/>
        <path
            d="M56.32 56.33C56.9827 56.33 57.52 55.7927 57.52 55.13C57.52 54.4673 56.9827 53.93 56.32 53.93C55.6573 53.93 55.12 54.4673 55.12 55.13C55.12 55.7927 55.6573 56.33 56.32 56.33Z"
            fill="white"/>
        <path
            d="M70.1 56.33C70.7627 56.33 71.3 55.7927 71.3 55.13C71.3 54.4673 70.7627 53.93 70.1 53.93C69.4372 53.93 68.9 54.4673 68.9 55.13C68.9 55.7927 69.4372 56.33 70.1 56.33Z"
            fill="white"/>
        <path
            d="M83.89 56.33C84.5527 56.33 85.09 55.7927 85.09 55.13C85.09 54.4673 84.5527 53.93 83.89 53.93C83.2273 53.93 82.69 54.4673 82.69 55.13C82.69 55.7927 83.2273 56.33 83.89 56.33Z"
            fill="white"/>
        <path
            d="M97.67 56.33C98.3327 56.33 98.87 55.7927 98.87 55.13C98.87 54.4673 98.3327 53.93 97.67 53.93C97.0073 53.93 96.47 54.4673 96.47 55.13C96.47 55.7927 97.0073 56.33 97.67 56.33Z"
            fill="white"/>
        <path
            d="M112.65 55.13C112.65 55.79 112.11 56.33 111.45 56.33C110.79 56.33 110.25 55.79 110.25 55.13C110.25 54.47 110.79 53.93 111.45 53.93C112.11 53.93 112.65 54.47 112.65 55.13Z"
            fill="white"/>
        <path
            d="M125.23 56.33C125.893 56.33 126.43 55.7927 126.43 55.13C126.43 54.4673 125.893 53.93 125.23 53.93C124.567 53.93 124.03 54.4673 124.03 55.13C124.03 55.7927 124.567 56.33 125.23 56.33Z"
            fill="white"/>
        <path
            d="M139.01 56.33C139.673 56.33 140.21 55.7927 140.21 55.13C140.21 54.4673 139.673 53.93 139.01 53.93C138.347 53.93 137.81 54.4673 137.81 55.13C137.81 55.7927 138.347 56.33 139.01 56.33Z"
            fill="white"/>
        <path
            d="M152.79 56.33C153.453 56.33 153.99 55.7927 153.99 55.13C153.99 54.4673 153.453 53.93 152.79 53.93C152.127 53.93 151.59 54.4673 151.59 55.13C151.59 55.7927 152.127 56.33 152.79 56.33Z"
            fill="white"/>
        <path
            d="M166.58 56.33C167.243 56.33 167.78 55.7927 167.78 55.13C167.78 54.4673 167.243 53.93 166.58 53.93C165.917 53.93 165.38 54.4673 165.38 55.13C165.38 55.7927 165.917 56.33 166.58 56.33Z"
            fill="white"/>
        <path
            d="M180.36 56.33C181.023 56.33 181.56 55.7927 181.56 55.13C181.56 54.4673 181.023 53.93 180.36 53.93C179.697 53.93 179.16 54.4673 179.16 55.13C179.16 55.7927 179.697 56.33 180.36 56.33Z"
            fill="white"/>
        <path
            d="M194.14 56.33C194.803 56.33 195.34 55.7927 195.34 55.13C195.34 54.4673 194.803 53.93 194.14 53.93C193.477 53.93 192.94 54.4673 192.94 55.13C192.94 55.7927 193.477 56.33 194.14 56.33Z"
            fill="white"/>
        <path
            d="M207.92 56.33C208.583 56.33 209.12 55.7927 209.12 55.13C209.12 54.4673 208.583 53.93 207.92 53.93C207.257 53.93 206.72 54.4673 206.72 55.13C206.72 55.7927 207.257 56.33 207.92 56.33Z"
            fill="white"/>
        <path
            d="M221.7 56.33C222.363 56.33 222.9 55.7927 222.9 55.13C222.9 54.4673 222.363 53.93 221.7 53.93C221.037 53.93 220.5 54.4673 220.5 55.13C220.5 55.7927 221.037 56.33 221.7 56.33Z"
            fill="white"/>
        <path
            d="M235.48 56.33C236.143 56.33 236.68 55.7927 236.68 55.13C236.68 54.4673 236.143 53.93 235.48 53.93C234.817 53.93 234.28 54.4673 234.28 55.13C234.28 55.7927 234.817 56.33 235.48 56.33Z"
            fill="white"/>
        <path
            d="M250.46 55.13C250.46 55.79 249.92 56.33 249.26 56.33C248.6 56.33 248.06 55.79 248.06 55.13C248.06 54.47 248.6 53.93 249.26 53.93C249.93 53.93 250.46 54.47 250.46 55.13Z"
            fill="white"/>
        <path
            d="M263.05 56.33C263.713 56.33 264.25 55.7927 264.25 55.13C264.25 54.4673 263.713 53.93 263.05 53.93C262.387 53.93 261.85 54.4673 261.85 55.13C261.85 55.7927 262.387 56.33 263.05 56.33Z"
            fill="white"/>
        <path
            d="M276.83 56.33C277.493 56.33 278.03 55.7927 278.03 55.13C278.03 54.4673 277.493 53.93 276.83 53.93C276.167 53.93 275.63 54.4673 275.63 55.13C275.63 55.7927 276.167 56.33 276.83 56.33Z"
            fill="white"/>
        <path
            d="M1.2 69.81C1.86274 69.81 2.4 69.2727 2.4 68.61C2.4 67.9472 1.86274 67.41 1.2 67.41C0.537255 67.41 0 67.9472 0 68.61C0 69.2727 0.537255 69.81 1.2 69.81Z"
            fill="white"/>
        <path
            d="M14.98 69.81C15.6427 69.81 16.18 69.2727 16.18 68.61C16.18 67.9472 15.6427 67.41 14.98 67.41C14.3173 67.41 13.78 67.9472 13.78 68.61C13.78 69.2727 14.3173 69.81 14.98 69.81Z"
            fill="white"/>
        <path
            d="M28.76 69.81C29.4227 69.81 29.96 69.2727 29.96 68.61C29.96 67.9472 29.4227 67.41 28.76 67.41C28.0973 67.41 27.56 67.9472 27.56 68.61C27.56 69.2727 28.0973 69.81 28.76 69.81Z"
            fill="white"/>
        <path
            d="M42.54 69.81C43.2027 69.81 43.74 69.2727 43.74 68.61C43.74 67.9472 43.2027 67.41 42.54 67.41C41.8773 67.41 41.34 67.9472 41.34 68.61C41.34 69.2727 41.8773 69.81 42.54 69.81Z"
            fill="white"/>
        <path
            d="M56.32 69.81C56.9827 69.81 57.52 69.2727 57.52 68.61C57.52 67.9472 56.9827 67.41 56.32 67.41C55.6573 67.41 55.12 67.9472 55.12 68.61C55.12 69.2727 55.6573 69.81 56.32 69.81Z"
            fill="white"/>
        <path
            d="M70.1 69.81C70.7627 69.81 71.3 69.2727 71.3 68.61C71.3 67.9472 70.7627 67.41 70.1 67.41C69.4372 67.41 68.9 67.9472 68.9 68.61C68.9 69.2727 69.4372 69.81 70.1 69.81Z"
            fill="white"/>
        <path
            d="M83.89 69.81C84.5527 69.81 85.09 69.2727 85.09 68.61C85.09 67.9472 84.5527 67.41 83.89 67.41C83.2273 67.41 82.69 67.9472 82.69 68.61C82.69 69.2727 83.2273 69.81 83.89 69.81Z"
            fill="white"/>
        <path
            d="M97.67 69.81C98.3327 69.81 98.87 69.2727 98.87 68.61C98.87 67.9472 98.3327 67.41 97.67 67.41C97.0073 67.41 96.47 67.9472 96.47 68.61C96.47 69.2727 97.0073 69.81 97.67 69.81Z"
            fill="white"/>
        <path
            d="M112.65 68.61C112.65 69.27 112.11 69.81 111.45 69.81C110.79 69.81 110.25 69.27 110.25 68.61C110.25 67.95 110.79 67.41 111.45 67.41C112.11 67.41 112.65 67.95 112.65 68.61Z"
            fill="white"/>
        <path
            d="M125.23 69.81C125.893 69.81 126.43 69.2727 126.43 68.61C126.43 67.9472 125.893 67.41 125.23 67.41C124.567 67.41 124.03 67.9472 124.03 68.61C124.03 69.2727 124.567 69.81 125.23 69.81Z"
            fill="white"/>
        <path
            d="M139.01 69.81C139.673 69.81 140.21 69.2727 140.21 68.61C140.21 67.9472 139.673 67.41 139.01 67.41C138.347 67.41 137.81 67.9472 137.81 68.61C137.81 69.2727 138.347 69.81 139.01 69.81Z"
            fill="white"/>
        <path
            d="M152.79 69.81C153.453 69.81 153.99 69.2727 153.99 68.61C153.99 67.9472 153.453 67.41 152.79 67.41C152.127 67.41 151.59 67.9472 151.59 68.61C151.59 69.2727 152.127 69.81 152.79 69.81Z"
            fill="white"/>
        <path
            d="M166.58 69.81C167.243 69.81 167.78 69.2727 167.78 68.61C167.78 67.9472 167.243 67.41 166.58 67.41C165.917 67.41 165.38 67.9472 165.38 68.61C165.38 69.2727 165.917 69.81 166.58 69.81Z"
            fill="white"/>
        <path
            d="M180.36 69.81C181.023 69.81 181.56 69.2727 181.56 68.61C181.56 67.9472 181.023 67.41 180.36 67.41C179.697 67.41 179.16 67.9472 179.16 68.61C179.16 69.2727 179.697 69.81 180.36 69.81Z"
            fill="white"/>
        <path
            d="M194.14 69.81C194.803 69.81 195.34 69.2727 195.34 68.61C195.34 67.9472 194.803 67.41 194.14 67.41C193.477 67.41 192.94 67.9472 192.94 68.61C192.94 69.2727 193.477 69.81 194.14 69.81Z"
            fill="white"/>
        <path
            d="M207.92 69.81C208.583 69.81 209.12 69.2727 209.12 68.61C209.12 67.9472 208.583 67.41 207.92 67.41C207.257 67.41 206.72 67.9472 206.72 68.61C206.72 69.2727 207.257 69.81 207.92 69.81Z"
            fill="white"/>
        <path
            d="M221.7 69.81C222.363 69.81 222.9 69.2727 222.9 68.61C222.9 67.9472 222.363 67.41 221.7 67.41C221.037 67.41 220.5 67.9472 220.5 68.61C220.5 69.2727 221.037 69.81 221.7 69.81Z"
            fill="white"/>
        <path
            d="M235.48 69.81C236.143 69.81 236.68 69.2727 236.68 68.61C236.68 67.9472 236.143 67.41 235.48 67.41C234.817 67.41 234.28 67.9472 234.28 68.61C234.28 69.2727 234.817 69.81 235.48 69.81Z"
            fill="white"/>
        <path
            d="M250.46 68.61C250.46 69.27 249.92 69.81 249.26 69.81C248.6 69.81 248.06 69.27 248.06 68.61C248.06 67.95 248.6 67.41 249.26 67.41C249.93 67.41 250.46 67.95 250.46 68.61Z"
            fill="white"/>
        <path
            d="M263.05 69.81C263.713 69.81 264.25 69.2727 264.25 68.61C264.25 67.9472 263.713 67.41 263.05 67.41C262.387 67.41 261.85 67.9472 261.85 68.61C261.85 69.2727 262.387 69.81 263.05 69.81Z"
            fill="white"/>
        <path
            d="M276.83 69.81C277.493 69.81 278.03 69.2727 278.03 68.61C278.03 67.9472 277.493 67.41 276.83 67.41C276.167 67.41 275.63 67.9472 275.63 68.61C275.63 69.2727 276.167 69.81 276.83 69.81Z"
            fill="white"/>
        <path
            d="M1.2 83.29C1.86274 83.29 2.4 82.7528 2.4 82.09C2.4 81.4273 1.86274 80.89 1.2 80.89C0.537255 80.89 0 81.4273 0 82.09C0 82.7528 0.537255 83.29 1.2 83.29Z"
            fill="white"/>
        <path
            d="M14.98 83.29C15.6427 83.29 16.18 82.7528 16.18 82.09C16.18 81.4273 15.6427 80.89 14.98 80.89C14.3173 80.89 13.78 81.4273 13.78 82.09C13.78 82.7528 14.3173 83.29 14.98 83.29Z"
            fill="white"/>
        <path
            d="M28.76 83.29C29.4227 83.29 29.96 82.7528 29.96 82.09C29.96 81.4273 29.4227 80.89 28.76 80.89C28.0973 80.89 27.56 81.4273 27.56 82.09C27.56 82.7528 28.0973 83.29 28.76 83.29Z"
            fill="white"/>
        <path
            d="M42.54 83.29C43.2027 83.29 43.74 82.7528 43.74 82.09C43.74 81.4273 43.2027 80.89 42.54 80.89C41.8773 80.89 41.34 81.4273 41.34 82.09C41.34 82.7528 41.8773 83.29 42.54 83.29Z"
            fill="white"/>
        <path
            d="M56.32 83.29C56.9827 83.29 57.52 82.7528 57.52 82.09C57.52 81.4273 56.9827 80.89 56.32 80.89C55.6573 80.89 55.12 81.4273 55.12 82.09C55.12 82.7528 55.6573 83.29 56.32 83.29Z"
            fill="white"/>
        <path
            d="M70.1 83.29C70.7627 83.29 71.3 82.7528 71.3 82.09C71.3 81.4273 70.7627 80.89 70.1 80.89C69.4372 80.89 68.9 81.4273 68.9 82.09C68.9 82.7528 69.4372 83.29 70.1 83.29Z"
            fill="white"/>
        <path
            d="M83.89 83.29C84.5527 83.29 85.09 82.7528 85.09 82.09C85.09 81.4273 84.5527 80.89 83.89 80.89C83.2273 80.89 82.69 81.4273 82.69 82.09C82.69 82.7528 83.2273 83.29 83.89 83.29Z"
            fill="white"/>
        <path
            d="M97.67 83.29C98.3327 83.29 98.87 82.7528 98.87 82.09C98.87 81.4273 98.3327 80.89 97.67 80.89C97.0073 80.89 96.47 81.4273 96.47 82.09C96.47 82.7528 97.0073 83.29 97.67 83.29Z"
            fill="white"/>
        <path
            d="M112.65 82.09C112.65 82.75 112.11 83.29 111.45 83.29C110.79 83.29 110.25 82.75 110.25 82.09C110.25 81.43 110.79 80.89 111.45 80.89C112.11 80.9 112.65 81.43 112.65 82.09Z"
            fill="white"/>
        <path
            d="M125.23 83.29C125.893 83.29 126.43 82.7528 126.43 82.09C126.43 81.4273 125.893 80.89 125.23 80.89C124.567 80.89 124.03 81.4273 124.03 82.09C124.03 82.7528 124.567 83.29 125.23 83.29Z"
            fill="white"/>
        <path
            d="M139.01 83.29C139.673 83.29 140.21 82.7528 140.21 82.09C140.21 81.4273 139.673 80.89 139.01 80.89C138.347 80.89 137.81 81.4273 137.81 82.09C137.81 82.7528 138.347 83.29 139.01 83.29Z"
            fill="white"/>
        <path
            d="M152.79 83.29C153.453 83.29 153.99 82.7528 153.99 82.09C153.99 81.4273 153.453 80.89 152.79 80.89C152.127 80.89 151.59 81.4273 151.59 82.09C151.59 82.7528 152.127 83.29 152.79 83.29Z"
            fill="white"/>
        <path
            d="M166.58 83.29C167.243 83.29 167.78 82.7528 167.78 82.09C167.78 81.4273 167.243 80.89 166.58 80.89C165.917 80.89 165.38 81.4273 165.38 82.09C165.38 82.7528 165.917 83.29 166.58 83.29Z"
            fill="white"/>
        <path
            d="M180.36 83.29C181.023 83.29 181.56 82.7528 181.56 82.09C181.56 81.4273 181.023 80.89 180.36 80.89C179.697 80.89 179.16 81.4273 179.16 82.09C179.16 82.7528 179.697 83.29 180.36 83.29Z"
            fill="white"/>
        <path
            d="M194.14 83.29C194.803 83.29 195.34 82.7528 195.34 82.09C195.34 81.4273 194.803 80.89 194.14 80.89C193.477 80.89 192.94 81.4273 192.94 82.09C192.94 82.7528 193.477 83.29 194.14 83.29Z"
            fill="white"/>
        <path
            d="M207.92 83.29C208.583 83.29 209.12 82.7528 209.12 82.09C209.12 81.4273 208.583 80.89 207.92 80.89C207.257 80.89 206.72 81.4273 206.72 82.09C206.72 82.7528 207.257 83.29 207.92 83.29Z"
            fill="white"/>
        <path
            d="M221.7 83.29C222.363 83.29 222.9 82.7528 222.9 82.09C222.9 81.4273 222.363 80.89 221.7 80.89C221.037 80.89 220.5 81.4273 220.5 82.09C220.5 82.7528 221.037 83.29 221.7 83.29Z"
            fill="white"/>
        <path
            d="M235.48 83.29C236.143 83.29 236.68 82.7528 236.68 82.09C236.68 81.4273 236.143 80.89 235.48 80.89C234.817 80.89 234.28 81.4273 234.28 82.09C234.28 82.7528 234.817 83.29 235.48 83.29Z"
            fill="white"/>
        <path
            d="M250.46 82.09C250.46 82.75 249.92 83.29 249.26 83.29C248.6 83.29 248.06 82.75 248.06 82.09C248.06 81.43 248.6 80.89 249.26 80.89C249.93 80.9 250.46 81.43 250.46 82.09Z"
            fill="white"/>
        <path
            d="M263.05 83.29C263.713 83.29 264.25 82.7528 264.25 82.09C264.25 81.4273 263.713 80.89 263.05 80.89C262.387 80.89 261.85 81.4273 261.85 82.09C261.85 82.7528 262.387 83.29 263.05 83.29Z"
            fill="white"/>
        <path
            d="M276.83 83.29C277.493 83.29 278.03 82.7528 278.03 82.09C278.03 81.4273 277.493 80.89 276.83 80.89C276.167 80.89 275.63 81.4273 275.63 82.09C275.63 82.7528 276.167 83.29 276.83 83.29Z"
            fill="white"/>
        <path
            d="M2.4 95.58C2.4 96.24 1.86 96.78 1.2 96.78C0.539997 96.78 0 96.24 0 95.58C0 94.92 0.539997 94.38 1.2 94.38C1.86 94.38 2.4 94.91 2.4 95.58Z"
            fill="white"/>
        <path
            d="M16.18 95.58C16.18 96.24 15.64 96.78 14.98 96.78C14.32 96.78 13.78 96.24 13.78 95.58C13.78 94.92 14.32 94.38 14.98 94.38C15.64 94.38 16.18 94.91 16.18 95.58Z"
            fill="white"/>
        <path
            d="M29.96 95.58C29.96 96.24 29.42 96.78 28.76 96.78C28.1 96.78 27.56 96.24 27.56 95.58C27.56 94.92 28.1 94.38 28.76 94.38C29.42 94.38 29.96 94.91 29.96 95.58Z"
            fill="white"/>
        <path
            d="M43.74 95.58C43.74 96.24 43.2 96.78 42.54 96.78C41.88 96.78 41.34 96.24 41.34 95.58C41.34 94.92 41.88 94.38 42.54 94.38C43.2 94.38 43.74 94.91 43.74 95.58Z"
            fill="white"/>
        <path
            d="M57.52 95.58C57.52 96.24 56.98 96.78 56.32 96.78C55.66 96.78 55.12 96.24 55.12 95.58C55.12 94.92 55.66 94.38 56.32 94.38C56.98 94.38 57.52 94.91 57.52 95.58Z"
            fill="white"/>
        <path
            d="M71.3 95.58C71.3 96.24 70.76 96.78 70.1 96.78C69.44 96.78 68.9 96.24 68.9 95.58C68.9 94.92 69.44 94.38 70.1 94.38C70.77 94.38 71.3 94.91 71.3 95.58Z"
            fill="white"/>
        <path
            d="M85.08 95.58C85.08 96.24 84.54 96.78 83.88 96.78C83.22 96.78 82.68 96.24 82.68 95.58C82.68 94.92 83.22 94.38 83.88 94.38C84.55 94.38 85.08 94.91 85.08 95.58Z"
            fill="white"/>
        <path
            d="M98.87 95.58C98.87 96.24 98.33 96.78 97.67 96.78C97.01 96.78 96.47 96.24 96.47 95.58C96.47 94.92 97.01 94.38 97.67 94.38C98.33 94.38 98.87 94.91 98.87 95.58Z"
            fill="white"/>
        <path
            d="M112.65 95.58C112.65 96.24 112.11 96.78 111.45 96.78C110.79 96.78 110.25 96.24 110.25 95.58C110.25 94.92 110.79 94.38 111.45 94.38C112.11 94.38 112.65 94.91 112.65 95.58Z"
            fill="white"/>
        <path
            d="M126.43 95.58C126.43 96.24 125.89 96.78 125.23 96.78C124.57 96.78 124.03 96.24 124.03 95.58C124.03 94.92 124.57 94.38 125.23 94.38C125.89 94.38 126.43 94.91 126.43 95.58Z"
            fill="white"/>
        <path
            d="M140.21 95.58C140.21 96.24 139.67 96.78 139.01 96.78C138.35 96.78 137.81 96.24 137.81 95.58C137.81 94.92 138.35 94.38 139.01 94.38C139.67 94.38 140.21 94.91 140.21 95.58Z"
            fill="white"/>
        <path
            d="M153.99 95.58C153.99 96.24 153.45 96.78 152.79 96.78C152.13 96.78 151.59 96.24 151.59 95.58C151.59 94.92 152.13 94.38 152.79 94.38C153.46 94.38 153.99 94.91 153.99 95.58Z"
            fill="white"/>
        <path
            d="M167.77 95.58C167.77 96.24 167.23 96.78 166.57 96.78C165.91 96.78 165.37 96.24 165.37 95.58C165.37 94.92 165.91 94.38 166.57 94.38C167.24 94.38 167.77 94.91 167.77 95.58Z"
            fill="white"/>
        <path
            d="M181.56 95.58C181.56 96.24 181.02 96.78 180.36 96.78C179.7 96.78 179.16 96.24 179.16 95.58C179.16 94.92 179.7 94.38 180.36 94.38C181.02 94.38 181.56 94.91 181.56 95.58Z"
            fill="white"/>
        <path
            d="M195.34 95.58C195.34 96.24 194.8 96.78 194.14 96.78C193.48 96.78 192.94 96.24 192.94 95.58C192.94 94.92 193.48 94.38 194.14 94.38C194.8 94.38 195.34 94.91 195.34 95.58Z"
            fill="white"/>
        <path
            d="M209.12 95.58C209.12 96.24 208.58 96.78 207.92 96.78C207.26 96.78 206.72 96.24 206.72 95.58C206.72 94.92 207.26 94.38 207.92 94.38C208.58 94.38 209.12 94.91 209.12 95.58Z"
            fill="white"/>
        <path
            d="M222.9 95.58C222.9 96.24 222.36 96.78 221.7 96.78C221.04 96.78 220.5 96.24 220.5 95.58C220.5 94.92 221.04 94.38 221.7 94.38C222.36 94.38 222.9 94.91 222.9 95.58Z"
            fill="white"/>
        <path
            d="M236.68 95.58C236.68 96.24 236.14 96.78 235.48 96.78C234.82 96.78 234.28 96.24 234.28 95.58C234.28 94.92 234.82 94.38 235.48 94.38C236.15 94.38 236.68 94.91 236.68 95.58Z"
            fill="white"/>
        <path
            d="M250.46 95.58C250.46 96.24 249.92 96.78 249.26 96.78C248.6 96.78 248.06 96.24 248.06 95.58C248.06 94.92 248.6 94.38 249.26 94.38C249.93 94.38 250.46 94.91 250.46 95.58Z"
            fill="white"/>
        <path
            d="M264.25 95.58C264.25 96.24 263.71 96.78 263.05 96.78C262.39 96.78 261.85 96.24 261.85 95.58C261.85 94.92 262.39 94.38 263.05 94.38C263.71 94.38 264.25 94.91 264.25 95.58Z"
            fill="white"/>
        <path
            d="M278.03 95.58C278.03 96.24 277.49 96.78 276.83 96.78C276.17 96.78 275.63 96.24 275.63 95.58C275.63 94.92 276.17 94.38 276.83 94.38C277.49 94.38 278.03 94.91 278.03 95.58Z"
            fill="white"/>
        <path
            d="M1.2 110.26C1.86274 110.26 2.4 109.723 2.4 109.06C2.4 108.397 1.86274 107.86 1.2 107.86C0.537255 107.86 0 108.397 0 109.06C0 109.723 0.537255 110.26 1.2 110.26Z"
            fill="white"/>
        <path
            d="M14.98 110.26C15.6427 110.26 16.18 109.723 16.18 109.06C16.18 108.397 15.6427 107.86 14.98 107.86C14.3173 107.86 13.78 108.397 13.78 109.06C13.78 109.723 14.3173 110.26 14.98 110.26Z"
            fill="white"/>
        <path
            d="M28.76 110.26C29.4227 110.26 29.96 109.723 29.96 109.06C29.96 108.397 29.4227 107.86 28.76 107.86C28.0973 107.86 27.56 108.397 27.56 109.06C27.56 109.723 28.0973 110.26 28.76 110.26Z"
            fill="white"/>
        <path
            d="M42.54 110.26C43.2027 110.26 43.74 109.723 43.74 109.06C43.74 108.397 43.2027 107.86 42.54 107.86C41.8773 107.86 41.34 108.397 41.34 109.06C41.34 109.723 41.8773 110.26 42.54 110.26Z"
            fill="white"/>
        <path
            d="M56.32 110.26C56.9827 110.26 57.52 109.723 57.52 109.06C57.52 108.397 56.9827 107.86 56.32 107.86C55.6573 107.86 55.12 108.397 55.12 109.06C55.12 109.723 55.6573 110.26 56.32 110.26Z"
            fill="white"/>
        <path
            d="M70.1 110.26C70.7627 110.26 71.3 109.723 71.3 109.06C71.3 108.397 70.7627 107.86 70.1 107.86C69.4372 107.86 68.9 108.397 68.9 109.06C68.9 109.723 69.4372 110.26 70.1 110.26Z"
            fill="white"/>
        <path
            d="M83.89 110.26C84.5527 110.26 85.09 109.723 85.09 109.06C85.09 108.397 84.5527 107.86 83.89 107.86C83.2273 107.86 82.69 108.397 82.69 109.06C82.69 109.723 83.2273 110.26 83.89 110.26Z"
            fill="white"/>
        <path
            d="M97.67 110.26C98.3327 110.26 98.87 109.723 98.87 109.06C98.87 108.397 98.3327 107.86 97.67 107.86C97.0073 107.86 96.47 108.397 96.47 109.06C96.47 109.723 97.0073 110.26 97.67 110.26Z"
            fill="white"/>
        <path
            d="M112.65 109.06C112.65 109.72 112.11 110.26 111.45 110.26C110.79 110.26 110.25 109.72 110.25 109.06C110.25 108.4 110.79 107.86 111.45 107.86C112.11 107.86 112.65 108.4 112.65 109.06Z"
            fill="white"/>
        <path
            d="M125.23 110.26C125.893 110.26 126.43 109.723 126.43 109.06C126.43 108.397 125.893 107.86 125.23 107.86C124.567 107.86 124.03 108.397 124.03 109.06C124.03 109.723 124.567 110.26 125.23 110.26Z"
            fill="white"/>
        <path
            d="M139.01 110.26C139.673 110.26 140.21 109.723 140.21 109.06C140.21 108.397 139.673 107.86 139.01 107.86C138.347 107.86 137.81 108.397 137.81 109.06C137.81 109.723 138.347 110.26 139.01 110.26Z"
            fill="white"/>
        <path
            d="M152.79 110.26C153.453 110.26 153.99 109.723 153.99 109.06C153.99 108.397 153.453 107.86 152.79 107.86C152.127 107.86 151.59 108.397 151.59 109.06C151.59 109.723 152.127 110.26 152.79 110.26Z"
            fill="white"/>
        <path
            d="M166.58 110.26C167.243 110.26 167.78 109.723 167.78 109.06C167.78 108.397 167.243 107.86 166.58 107.86C165.917 107.86 165.38 108.397 165.38 109.06C165.38 109.723 165.917 110.26 166.58 110.26Z"
            fill="white"/>
        <path
            d="M180.36 110.26C181.023 110.26 181.56 109.723 181.56 109.06C181.56 108.397 181.023 107.86 180.36 107.86C179.697 107.86 179.16 108.397 179.16 109.06C179.16 109.723 179.697 110.26 180.36 110.26Z"
            fill="white"/>
        <path
            d="M194.14 110.26C194.803 110.26 195.34 109.723 195.34 109.06C195.34 108.397 194.803 107.86 194.14 107.86C193.477 107.86 192.94 108.397 192.94 109.06C192.94 109.723 193.477 110.26 194.14 110.26Z"
            fill="white"/>
        <path
            d="M207.92 110.26C208.583 110.26 209.12 109.723 209.12 109.06C209.12 108.397 208.583 107.86 207.92 107.86C207.257 107.86 206.72 108.397 206.72 109.06C206.72 109.723 207.257 110.26 207.92 110.26Z"
            fill="white"/>
        <path
            d="M221.7 110.26C222.363 110.26 222.9 109.723 222.9 109.06C222.9 108.397 222.363 107.86 221.7 107.86C221.037 107.86 220.5 108.397 220.5 109.06C220.5 109.723 221.037 110.26 221.7 110.26Z"
            fill="white"/>
        <path
            d="M235.48 110.26C236.143 110.26 236.68 109.723 236.68 109.06C236.68 108.397 236.143 107.86 235.48 107.86C234.817 107.86 234.28 108.397 234.28 109.06C234.28 109.723 234.817 110.26 235.48 110.26Z"
            fill="white"/>
        <path
            d="M250.46 109.06C250.46 109.72 249.92 110.26 249.26 110.26C248.6 110.26 248.06 109.72 248.06 109.06C248.06 108.4 248.6 107.86 249.26 107.86C249.93 107.86 250.46 108.4 250.46 109.06Z"
            fill="white"/>
        <path
            d="M263.05 110.26C263.713 110.26 264.25 109.723 264.25 109.06C264.25 108.397 263.713 107.86 263.05 107.86C262.387 107.86 261.85 108.397 261.85 109.06C261.85 109.723 262.387 110.26 263.05 110.26Z"
            fill="white"/>
        <path
            d="M276.83 110.26C277.493 110.26 278.03 109.723 278.03 109.06C278.03 108.397 277.493 107.86 276.83 107.86C276.167 107.86 275.63 108.397 275.63 109.06C275.63 109.723 276.167 110.26 276.83 110.26Z"
            fill="white"/>
        <path
            d="M1.2 123.74C1.86274 123.74 2.4 123.203 2.4 122.54C2.4 121.877 1.86274 121.34 1.2 121.34C0.537255 121.34 0 121.877 0 122.54C0 123.203 0.537255 123.74 1.2 123.74Z"
            fill="white"/>
        <path
            d="M14.98 123.74C15.6427 123.74 16.18 123.203 16.18 122.54C16.18 121.877 15.6427 121.34 14.98 121.34C14.3173 121.34 13.78 121.877 13.78 122.54C13.78 123.203 14.3173 123.74 14.98 123.74Z"
            fill="white"/>
        <path
            d="M28.76 123.74C29.4227 123.74 29.96 123.203 29.96 122.54C29.96 121.877 29.4227 121.34 28.76 121.34C28.0973 121.34 27.56 121.877 27.56 122.54C27.56 123.203 28.0973 123.74 28.76 123.74Z"
            fill="white"/>
        <path
            d="M42.54 123.74C43.2027 123.74 43.74 123.203 43.74 122.54C43.74 121.877 43.2027 121.34 42.54 121.34C41.8773 121.34 41.34 121.877 41.34 122.54C41.34 123.203 41.8773 123.74 42.54 123.74Z"
            fill="white"/>
        <path
            d="M56.32 123.74C56.9827 123.74 57.52 123.203 57.52 122.54C57.52 121.877 56.9827 121.34 56.32 121.34C55.6573 121.34 55.12 121.877 55.12 122.54C55.12 123.203 55.6573 123.74 56.32 123.74Z"
            fill="white"/>
        <path
            d="M70.1 123.74C70.7627 123.74 71.3 123.203 71.3 122.54C71.3 121.877 70.7627 121.34 70.1 121.34C69.4372 121.34 68.9 121.877 68.9 122.54C68.9 123.203 69.4372 123.74 70.1 123.74Z"
            fill="white"/>
        <path
            d="M83.89 123.74C84.5527 123.74 85.09 123.203 85.09 122.54C85.09 121.877 84.5527 121.34 83.89 121.34C83.2273 121.34 82.69 121.877 82.69 122.54C82.69 123.203 83.2273 123.74 83.89 123.74Z"
            fill="white"/>
        <path
            d="M97.67 123.74C98.3327 123.74 98.87 123.203 98.87 122.54C98.87 121.877 98.3327 121.34 97.67 121.34C97.0073 121.34 96.47 121.877 96.47 122.54C96.47 123.203 97.0073 123.74 97.67 123.74Z"
            fill="white"/>
        <path
            d="M112.65 122.54C112.65 123.2 112.11 123.74 111.45 123.74C110.79 123.74 110.25 123.2 110.25 122.54C110.25 121.88 110.79 121.34 111.45 121.34C112.11 121.34 112.65 121.88 112.65 122.54Z"
            fill="white"/>
        <path
            d="M125.23 123.74C125.893 123.74 126.43 123.203 126.43 122.54C126.43 121.877 125.893 121.34 125.23 121.34C124.567 121.34 124.03 121.877 124.03 122.54C124.03 123.203 124.567 123.74 125.23 123.74Z"
            fill="white"/>
        <path
            d="M139.01 123.74C139.673 123.74 140.21 123.203 140.21 122.54C140.21 121.877 139.673 121.34 139.01 121.34C138.347 121.34 137.81 121.877 137.81 122.54C137.81 123.203 138.347 123.74 139.01 123.74Z"
            fill="white"/>
        <path
            d="M152.79 123.74C153.453 123.74 153.99 123.203 153.99 122.54C153.99 121.877 153.453 121.34 152.79 121.34C152.127 121.34 151.59 121.877 151.59 122.54C151.59 123.203 152.127 123.74 152.79 123.74Z"
            fill="white"/>
        <path
            d="M166.58 123.74C167.243 123.74 167.78 123.203 167.78 122.54C167.78 121.877 167.243 121.34 166.58 121.34C165.917 121.34 165.38 121.877 165.38 122.54C165.38 123.203 165.917 123.74 166.58 123.74Z"
            fill="white"/>
        <path
            d="M180.36 123.74C181.023 123.74 181.56 123.203 181.56 122.54C181.56 121.877 181.023 121.34 180.36 121.34C179.697 121.34 179.16 121.877 179.16 122.54C179.16 123.203 179.697 123.74 180.36 123.74Z"
            fill="white"/>
        <path
            d="M194.14 123.74C194.803 123.74 195.34 123.203 195.34 122.54C195.34 121.877 194.803 121.34 194.14 121.34C193.477 121.34 192.94 121.877 192.94 122.54C192.94 123.203 193.477 123.74 194.14 123.74Z"
            fill="white"/>
        <path
            d="M207.92 123.74C208.583 123.74 209.12 123.203 209.12 122.54C209.12 121.877 208.583 121.34 207.92 121.34C207.257 121.34 206.72 121.877 206.72 122.54C206.72 123.203 207.257 123.74 207.92 123.74Z"
            fill="white"/>
        <path
            d="M221.7 123.74C222.363 123.74 222.9 123.203 222.9 122.54C222.9 121.877 222.363 121.34 221.7 121.34C221.037 121.34 220.5 121.877 220.5 122.54C220.5 123.203 221.037 123.74 221.7 123.74Z"
            fill="white"/>
        <path
            d="M235.48 123.74C236.143 123.74 236.68 123.203 236.68 122.54C236.68 121.877 236.143 121.34 235.48 121.34C234.817 121.34 234.28 121.877 234.28 122.54C234.28 123.203 234.817 123.74 235.48 123.74Z"
            fill="white"/>
        <path
            d="M250.46 122.54C250.46 123.2 249.92 123.74 249.26 123.74C248.6 123.74 248.06 123.2 248.06 122.54C248.06 121.88 248.6 121.34 249.26 121.34C249.93 121.34 250.46 121.88 250.46 122.54Z"
            fill="white"/>
        <path
            d="M263.05 123.74C263.713 123.74 264.25 123.203 264.25 122.54C264.25 121.877 263.713 121.34 263.05 121.34C262.387 121.34 261.85 121.877 261.85 122.54C261.85 123.203 262.387 123.74 263.05 123.74Z"
            fill="white"/>
        <path
            d="M276.83 123.74C277.493 123.74 278.03 123.203 278.03 122.54C278.03 121.877 277.493 121.34 276.83 121.34C276.167 121.34 275.63 121.877 275.63 122.54C275.63 123.203 276.167 123.74 276.83 123.74Z"
            fill="white"/>
        <path
            d="M1.2 137.22C1.86274 137.22 2.4 136.683 2.4 136.02C2.4 135.357 1.86274 134.82 1.2 134.82C0.537255 134.82 0 135.357 0 136.02C0 136.683 0.537255 137.22 1.2 137.22Z"
            fill="white"/>
        <path
            d="M14.98 137.22C15.6427 137.22 16.18 136.683 16.18 136.02C16.18 135.357 15.6427 134.82 14.98 134.82C14.3173 134.82 13.78 135.357 13.78 136.02C13.78 136.683 14.3173 137.22 14.98 137.22Z"
            fill="white"/>
        <path
            d="M28.76 137.22C29.4227 137.22 29.96 136.683 29.96 136.02C29.96 135.357 29.4227 134.82 28.76 134.82C28.0973 134.82 27.56 135.357 27.56 136.02C27.56 136.683 28.0973 137.22 28.76 137.22Z"
            fill="white"/>
        <path
            d="M42.54 137.22C43.2027 137.22 43.74 136.683 43.74 136.02C43.74 135.357 43.2027 134.82 42.54 134.82C41.8773 134.82 41.34 135.357 41.34 136.02C41.34 136.683 41.8773 137.22 42.54 137.22Z"
            fill="white"/>
        <path
            d="M56.32 137.22C56.9827 137.22 57.52 136.683 57.52 136.02C57.52 135.357 56.9827 134.82 56.32 134.82C55.6573 134.82 55.12 135.357 55.12 136.02C55.12 136.683 55.6573 137.22 56.32 137.22Z"
            fill="white"/>
        <path
            d="M70.1 137.22C70.7627 137.22 71.3 136.683 71.3 136.02C71.3 135.357 70.7627 134.82 70.1 134.82C69.4372 134.82 68.9 135.357 68.9 136.02C68.9 136.683 69.4372 137.22 70.1 137.22Z"
            fill="white"/>
        <path
            d="M83.89 137.22C84.5527 137.22 85.09 136.683 85.09 136.02C85.09 135.357 84.5527 134.82 83.89 134.82C83.2273 134.82 82.69 135.357 82.69 136.02C82.69 136.683 83.2273 137.22 83.89 137.22Z"
            fill="white"/>
        <path
            d="M97.67 137.22C98.3327 137.22 98.87 136.683 98.87 136.02C98.87 135.357 98.3327 134.82 97.67 134.82C97.0073 134.82 96.47 135.357 96.47 136.02C96.47 136.683 97.0073 137.22 97.67 137.22Z"
            fill="white"/>
        <path
            d="M112.65 136.02C112.65 136.68 112.11 137.22 111.45 137.22C110.79 137.22 110.25 136.68 110.25 136.02C110.25 135.36 110.79 134.82 111.45 134.82C112.11 134.82 112.65 135.36 112.65 136.02Z"
            fill="white"/>
        <path
            d="M125.23 137.22C125.893 137.22 126.43 136.683 126.43 136.02C126.43 135.357 125.893 134.82 125.23 134.82C124.567 134.82 124.03 135.357 124.03 136.02C124.03 136.683 124.567 137.22 125.23 137.22Z"
            fill="white"/>
        <path
            d="M139.01 137.22C139.673 137.22 140.21 136.683 140.21 136.02C140.21 135.357 139.673 134.82 139.01 134.82C138.347 134.82 137.81 135.357 137.81 136.02C137.81 136.683 138.347 137.22 139.01 137.22Z"
            fill="white"/>
        <path
            d="M152.79 137.22C153.453 137.22 153.99 136.683 153.99 136.02C153.99 135.357 153.453 134.82 152.79 134.82C152.127 134.82 151.59 135.357 151.59 136.02C151.59 136.683 152.127 137.22 152.79 137.22Z"
            fill="white"/>
        <path
            d="M166.58 137.22C167.243 137.22 167.78 136.683 167.78 136.02C167.78 135.357 167.243 134.82 166.58 134.82C165.917 134.82 165.38 135.357 165.38 136.02C165.38 136.683 165.917 137.22 166.58 137.22Z"
            fill="white"/>
        <path
            d="M180.36 137.22C181.023 137.22 181.56 136.683 181.56 136.02C181.56 135.357 181.023 134.82 180.36 134.82C179.697 134.82 179.16 135.357 179.16 136.02C179.16 136.683 179.697 137.22 180.36 137.22Z"
            fill="white"/>
        <path
            d="M194.14 137.22C194.803 137.22 195.34 136.683 195.34 136.02C195.34 135.357 194.803 134.82 194.14 134.82C193.477 134.82 192.94 135.357 192.94 136.02C192.94 136.683 193.477 137.22 194.14 137.22Z"
            fill="white"/>
        <path
            d="M207.92 137.22C208.583 137.22 209.12 136.683 209.12 136.02C209.12 135.357 208.583 134.82 207.92 134.82C207.257 134.82 206.72 135.357 206.72 136.02C206.72 136.683 207.257 137.22 207.92 137.22Z"
            fill="white"/>
        <path
            d="M221.7 137.22C222.363 137.22 222.9 136.683 222.9 136.02C222.9 135.357 222.363 134.82 221.7 134.82C221.037 134.82 220.5 135.357 220.5 136.02C220.5 136.683 221.037 137.22 221.7 137.22Z"
            fill="white"/>
        <path
            d="M235.48 137.22C236.143 137.22 236.68 136.683 236.68 136.02C236.68 135.357 236.143 134.82 235.48 134.82C234.817 134.82 234.28 135.357 234.28 136.02C234.28 136.683 234.817 137.22 235.48 137.22Z"
            fill="white"/>
        <path
            d="M250.46 136.02C250.46 136.68 249.92 137.22 249.26 137.22C248.6 137.22 248.06 136.68 248.06 136.02C248.06 135.36 248.6 134.82 249.26 134.82C249.93 134.82 250.46 135.36 250.46 136.02Z"
            fill="white"/>
        <path
            d="M263.05 137.22C263.713 137.22 264.25 136.683 264.25 136.02C264.25 135.357 263.713 134.82 263.05 134.82C262.387 134.82 261.85 135.357 261.85 136.02C261.85 136.683 262.387 137.22 263.05 137.22Z"
            fill="white"/>
        <path
            d="M276.83 137.22C277.493 137.22 278.03 136.683 278.03 136.02C278.03 135.357 277.493 134.82 276.83 134.82C276.167 134.82 275.63 135.357 275.63 136.02C275.63 136.683 276.167 137.22 276.83 137.22Z"
            fill="white"/>
        <path
            d="M1.2 150.7C1.86274 150.7 2.4 150.163 2.4 149.5C2.4 148.837 1.86274 148.3 1.2 148.3C0.537255 148.3 0 148.837 0 149.5C0 150.163 0.537255 150.7 1.2 150.7Z"
            fill="white"/>
        <path
            d="M14.98 150.7C15.6427 150.7 16.18 150.163 16.18 149.5C16.18 148.837 15.6427 148.3 14.98 148.3C14.3173 148.3 13.78 148.837 13.78 149.5C13.78 150.163 14.3173 150.7 14.98 150.7Z"
            fill="white"/>
        <path
            d="M28.76 150.7C29.4227 150.7 29.96 150.163 29.96 149.5C29.96 148.837 29.4227 148.3 28.76 148.3C28.0973 148.3 27.56 148.837 27.56 149.5C27.56 150.163 28.0973 150.7 28.76 150.7Z"
            fill="white"/>
        <path
            d="M42.54 150.7C43.2027 150.7 43.74 150.163 43.74 149.5C43.74 148.837 43.2027 148.3 42.54 148.3C41.8773 148.3 41.34 148.837 41.34 149.5C41.34 150.163 41.8773 150.7 42.54 150.7Z"
            fill="white"/>
        <path
            d="M56.32 150.7C56.9827 150.7 57.52 150.163 57.52 149.5C57.52 148.837 56.9827 148.3 56.32 148.3C55.6573 148.3 55.12 148.837 55.12 149.5C55.12 150.163 55.6573 150.7 56.32 150.7Z"
            fill="white"/>
        <path
            d="M70.1 150.7C70.7627 150.7 71.3 150.163 71.3 149.5C71.3 148.837 70.7627 148.3 70.1 148.3C69.4372 148.3 68.9 148.837 68.9 149.5C68.9 150.163 69.4372 150.7 70.1 150.7Z"
            fill="white"/>
        <path
            d="M83.89 150.7C84.5527 150.7 85.09 150.163 85.09 149.5C85.09 148.837 84.5527 148.3 83.89 148.3C83.2273 148.3 82.69 148.837 82.69 149.5C82.69 150.163 83.2273 150.7 83.89 150.7Z"
            fill="white"/>
        <path
            d="M97.67 150.7C98.3327 150.7 98.87 150.163 98.87 149.5C98.87 148.837 98.3327 148.3 97.67 148.3C97.0073 148.3 96.47 148.837 96.47 149.5C96.47 150.163 97.0073 150.7 97.67 150.7Z"
            fill="white"/>
        <path
            d="M112.65 149.5C112.65 150.16 112.11 150.7 111.45 150.7C110.79 150.7 110.25 150.16 110.25 149.5C110.25 148.84 110.79 148.3 111.45 148.3C112.11 148.31 112.65 148.84 112.65 149.5Z"
            fill="white"/>
        <path
            d="M125.23 150.7C125.893 150.7 126.43 150.163 126.43 149.5C126.43 148.837 125.893 148.3 125.23 148.3C124.567 148.3 124.03 148.837 124.03 149.5C124.03 150.163 124.567 150.7 125.23 150.7Z"
            fill="white"/>
        <path
            d="M139.01 150.7C139.673 150.7 140.21 150.163 140.21 149.5C140.21 148.837 139.673 148.3 139.01 148.3C138.347 148.3 137.81 148.837 137.81 149.5C137.81 150.163 138.347 150.7 139.01 150.7Z"
            fill="white"/>
        <path
            d="M152.79 150.7C153.453 150.7 153.99 150.163 153.99 149.5C153.99 148.837 153.453 148.3 152.79 148.3C152.127 148.3 151.59 148.837 151.59 149.5C151.59 150.163 152.127 150.7 152.79 150.7Z"
            fill="white"/>
        <path
            d="M166.58 150.7C167.243 150.7 167.78 150.163 167.78 149.5C167.78 148.837 167.243 148.3 166.58 148.3C165.917 148.3 165.38 148.837 165.38 149.5C165.38 150.163 165.917 150.7 166.58 150.7Z"
            fill="white"/>
        <path
            d="M180.36 150.7C181.023 150.7 181.56 150.163 181.56 149.5C181.56 148.837 181.023 148.3 180.36 148.3C179.697 148.3 179.16 148.837 179.16 149.5C179.16 150.163 179.697 150.7 180.36 150.7Z"
            fill="white"/>
        <path
            d="M194.14 150.7C194.803 150.7 195.34 150.163 195.34 149.5C195.34 148.837 194.803 148.3 194.14 148.3C193.477 148.3 192.94 148.837 192.94 149.5C192.94 150.163 193.477 150.7 194.14 150.7Z"
            fill="white"/>
        <path
            d="M207.92 150.7C208.583 150.7 209.12 150.163 209.12 149.5C209.12 148.837 208.583 148.3 207.92 148.3C207.257 148.3 206.72 148.837 206.72 149.5C206.72 150.163 207.257 150.7 207.92 150.7Z"
            fill="white"/>
        <path
            d="M221.7 150.7C222.363 150.7 222.9 150.163 222.9 149.5C222.9 148.837 222.363 148.3 221.7 148.3C221.037 148.3 220.5 148.837 220.5 149.5C220.5 150.163 221.037 150.7 221.7 150.7Z"
            fill="white"/>
        <path
            d="M235.48 150.7C236.143 150.7 236.68 150.163 236.68 149.5C236.68 148.837 236.143 148.3 235.48 148.3C234.817 148.3 234.28 148.837 234.28 149.5C234.28 150.163 234.817 150.7 235.48 150.7Z"
            fill="white"/>
        <path
            d="M250.46 149.5C250.46 150.16 249.92 150.7 249.26 150.7C248.6 150.7 248.06 150.16 248.06 149.5C248.06 148.84 248.6 148.3 249.26 148.3C249.93 148.31 250.46 148.84 250.46 149.5Z"
            fill="white"/>
        <path
            d="M263.05 150.7C263.713 150.7 264.25 150.163 264.25 149.5C264.25 148.837 263.713 148.3 263.05 148.3C262.387 148.3 261.85 148.837 261.85 149.5C261.85 150.163 262.387 150.7 263.05 150.7Z"
            fill="white"/>
        <path
            d="M276.83 150.7C277.493 150.7 278.03 150.163 278.03 149.5C278.03 148.837 277.493 148.3 276.83 148.3C276.167 148.3 275.63 148.837 275.63 149.5C275.63 150.163 276.167 150.7 276.83 150.7Z"
            fill="white"/>
        <path
            d="M1.2 164.19C1.86274 164.19 2.4 163.653 2.4 162.99C2.4 162.327 1.86274 161.79 1.2 161.79C0.537255 161.79 0 162.327 0 162.99C0 163.653 0.537255 164.19 1.2 164.19Z"
            fill="white"/>
        <path
            d="M14.98 164.19C15.6427 164.19 16.18 163.653 16.18 162.99C16.18 162.327 15.6427 161.79 14.98 161.79C14.3173 161.79 13.78 162.327 13.78 162.99C13.78 163.653 14.3173 164.19 14.98 164.19Z"
            fill="white"/>
        <path
            d="M28.76 164.19C29.4227 164.19 29.96 163.653 29.96 162.99C29.96 162.327 29.4227 161.79 28.76 161.79C28.0973 161.79 27.56 162.327 27.56 162.99C27.56 163.653 28.0973 164.19 28.76 164.19Z"
            fill="white"/>
        <path
            d="M42.54 164.19C43.2027 164.19 43.74 163.653 43.74 162.99C43.74 162.327 43.2027 161.79 42.54 161.79C41.8773 161.79 41.34 162.327 41.34 162.99C41.34 163.653 41.8773 164.19 42.54 164.19Z"
            fill="white"/>
        <path
            d="M56.32 164.19C56.9827 164.19 57.52 163.653 57.52 162.99C57.52 162.327 56.9827 161.79 56.32 161.79C55.6573 161.79 55.12 162.327 55.12 162.99C55.12 163.653 55.6573 164.19 56.32 164.19Z"
            fill="white"/>
        <path
            d="M70.1 164.19C70.7627 164.19 71.3 163.653 71.3 162.99C71.3 162.327 70.7627 161.79 70.1 161.79C69.4372 161.79 68.9 162.327 68.9 162.99C68.9 163.653 69.4372 164.19 70.1 164.19Z"
            fill="white"/>
        <path
            d="M83.89 164.19C84.5527 164.19 85.09 163.653 85.09 162.99C85.09 162.327 84.5527 161.79 83.89 161.79C83.2273 161.79 82.69 162.327 82.69 162.99C82.69 163.653 83.2273 164.19 83.89 164.19Z"
            fill="white"/>
        <path
            d="M97.67 164.19C98.3327 164.19 98.87 163.653 98.87 162.99C98.87 162.327 98.3327 161.79 97.67 161.79C97.0073 161.79 96.47 162.327 96.47 162.99C96.47 163.653 97.0073 164.19 97.67 164.19Z"
            fill="white"/>
        <path
            d="M112.65 162.99C112.65 163.65 112.11 164.19 111.45 164.19C110.79 164.19 110.25 163.65 110.25 162.99C110.25 162.33 110.79 161.79 111.45 161.79C112.11 161.79 112.65 162.32 112.65 162.99Z"
            fill="white"/>
        <path
            d="M125.23 164.19C125.893 164.19 126.43 163.653 126.43 162.99C126.43 162.327 125.893 161.79 125.23 161.79C124.567 161.79 124.03 162.327 124.03 162.99C124.03 163.653 124.567 164.19 125.23 164.19Z"
            fill="white"/>
        <path
            d="M139.01 164.19C139.673 164.19 140.21 163.653 140.21 162.99C140.21 162.327 139.673 161.79 139.01 161.79C138.347 161.79 137.81 162.327 137.81 162.99C137.81 163.653 138.347 164.19 139.01 164.19Z"
            fill="white"/>
        <path
            d="M152.79 164.19C153.453 164.19 153.99 163.653 153.99 162.99C153.99 162.327 153.453 161.79 152.79 161.79C152.127 161.79 151.59 162.327 151.59 162.99C151.59 163.653 152.127 164.19 152.79 164.19Z"
            fill="white"/>
        <path
            d="M166.58 164.19C167.243 164.19 167.78 163.653 167.78 162.99C167.78 162.327 167.243 161.79 166.58 161.79C165.917 161.79 165.38 162.327 165.38 162.99C165.38 163.653 165.917 164.19 166.58 164.19Z"
            fill="white"/>
        <path
            d="M180.36 164.19C181.023 164.19 181.56 163.653 181.56 162.99C181.56 162.327 181.023 161.79 180.36 161.79C179.697 161.79 179.16 162.327 179.16 162.99C179.16 163.653 179.697 164.19 180.36 164.19Z"
            fill="white"/>
        <path
            d="M194.14 164.19C194.803 164.19 195.34 163.653 195.34 162.99C195.34 162.327 194.803 161.79 194.14 161.79C193.477 161.79 192.94 162.327 192.94 162.99C192.94 163.653 193.477 164.19 194.14 164.19Z"
            fill="white"/>
        <path
            d="M207.92 164.19C208.583 164.19 209.12 163.653 209.12 162.99C209.12 162.327 208.583 161.79 207.92 161.79C207.257 161.79 206.72 162.327 206.72 162.99C206.72 163.653 207.257 164.19 207.92 164.19Z"
            fill="white"/>
        <path
            d="M221.7 164.19C222.363 164.19 222.9 163.653 222.9 162.99C222.9 162.327 222.363 161.79 221.7 161.79C221.037 161.79 220.5 162.327 220.5 162.99C220.5 163.653 221.037 164.19 221.7 164.19Z"
            fill="white"/>
        <path
            d="M235.48 164.19C236.143 164.19 236.68 163.653 236.68 162.99C236.68 162.327 236.143 161.79 235.48 161.79C234.817 161.79 234.28 162.327 234.28 162.99C234.28 163.653 234.817 164.19 235.48 164.19Z"
            fill="white"/>
        <path
            d="M250.46 162.99C250.46 163.65 249.92 164.19 249.26 164.19C248.6 164.19 248.06 163.65 248.06 162.99C248.06 162.33 248.6 161.79 249.26 161.79C249.93 161.79 250.46 162.32 250.46 162.99Z"
            fill="white"/>
        <path
            d="M263.05 164.19C263.713 164.19 264.25 163.653 264.25 162.99C264.25 162.327 263.713 161.79 263.05 161.79C262.387 161.79 261.85 162.327 261.85 162.99C261.85 163.653 262.387 164.19 263.05 164.19Z"
            fill="white"/>
        <path
            d="M276.83 164.19C277.493 164.19 278.03 163.653 278.03 162.99C278.03 162.327 277.493 161.79 276.83 161.79C276.167 161.79 275.63 162.327 275.63 162.99C275.63 163.653 276.167 164.19 276.83 164.19Z"
            fill="white"/>
        <path
            d="M1.2 177.67C1.86274 177.67 2.4 177.133 2.4 176.47C2.4 175.807 1.86274 175.27 1.2 175.27C0.537255 175.27 0 175.807 0 176.47C0 177.133 0.537255 177.67 1.2 177.67Z"
            fill="white"/>
        <path
            d="M14.98 177.67C15.6427 177.67 16.18 177.133 16.18 176.47C16.18 175.807 15.6427 175.27 14.98 175.27C14.3173 175.27 13.78 175.807 13.78 176.47C13.78 177.133 14.3173 177.67 14.98 177.67Z"
            fill="white"/>
        <path
            d="M28.76 177.67C29.4227 177.67 29.96 177.133 29.96 176.47C29.96 175.807 29.4227 175.27 28.76 175.27C28.0973 175.27 27.56 175.807 27.56 176.47C27.56 177.133 28.0973 177.67 28.76 177.67Z"
            fill="white"/>
        <path
            d="M42.54 177.67C43.2027 177.67 43.74 177.133 43.74 176.47C43.74 175.807 43.2027 175.27 42.54 175.27C41.8773 175.27 41.34 175.807 41.34 176.47C41.34 177.133 41.8773 177.67 42.54 177.67Z"
            fill="white"/>
        <path
            d="M56.32 177.67C56.9827 177.67 57.52 177.133 57.52 176.47C57.52 175.807 56.9827 175.27 56.32 175.27C55.6573 175.27 55.12 175.807 55.12 176.47C55.12 177.133 55.6573 177.67 56.32 177.67Z"
            fill="white"/>
        <path
            d="M70.1 177.67C70.7627 177.67 71.3 177.133 71.3 176.47C71.3 175.807 70.7627 175.27 70.1 175.27C69.4372 175.27 68.9 175.807 68.9 176.47C68.9 177.133 69.4372 177.67 70.1 177.67Z"
            fill="white"/>
        <path
            d="M83.89 177.67C84.5527 177.67 85.09 177.133 85.09 176.47C85.09 175.807 84.5527 175.27 83.89 175.27C83.2273 175.27 82.69 175.807 82.69 176.47C82.69 177.133 83.2273 177.67 83.89 177.67Z"
            fill="white"/>
        <path
            d="M97.67 177.67C98.3327 177.67 98.87 177.133 98.87 176.47C98.87 175.807 98.3327 175.27 97.67 175.27C97.0073 175.27 96.47 175.807 96.47 176.47C96.47 177.133 97.0073 177.67 97.67 177.67Z"
            fill="white"/>
        <path
            d="M112.65 176.47C112.65 177.13 112.11 177.67 111.45 177.67C110.79 177.67 110.25 177.13 110.25 176.47C110.25 175.81 110.79 175.27 111.45 175.27C112.11 175.27 112.65 175.81 112.65 176.47Z"
            fill="white"/>
        <path
            d="M125.23 177.67C125.893 177.67 126.43 177.133 126.43 176.47C126.43 175.807 125.893 175.27 125.23 175.27C124.567 175.27 124.03 175.807 124.03 176.47C124.03 177.133 124.567 177.67 125.23 177.67Z"
            fill="white"/>
        <path
            d="M139.01 177.67C139.673 177.67 140.21 177.133 140.21 176.47C140.21 175.807 139.673 175.27 139.01 175.27C138.347 175.27 137.81 175.807 137.81 176.47C137.81 177.133 138.347 177.67 139.01 177.67Z"
            fill="white"/>
        <path
            d="M152.79 177.67C153.453 177.67 153.99 177.133 153.99 176.47C153.99 175.807 153.453 175.27 152.79 175.27C152.127 175.27 151.59 175.807 151.59 176.47C151.59 177.133 152.127 177.67 152.79 177.67Z"
            fill="white"/>
        <path
            d="M166.58 177.67C167.243 177.67 167.78 177.133 167.78 176.47C167.78 175.807 167.243 175.27 166.58 175.27C165.917 175.27 165.38 175.807 165.38 176.47C165.38 177.133 165.917 177.67 166.58 177.67Z"
            fill="white"/>
        <path
            d="M180.36 177.67C181.023 177.67 181.56 177.133 181.56 176.47C181.56 175.807 181.023 175.27 180.36 175.27C179.697 175.27 179.16 175.807 179.16 176.47C179.16 177.133 179.697 177.67 180.36 177.67Z"
            fill="white"/>
        <path
            d="M194.14 177.67C194.803 177.67 195.34 177.133 195.34 176.47C195.34 175.807 194.803 175.27 194.14 175.27C193.477 175.27 192.94 175.807 192.94 176.47C192.94 177.133 193.477 177.67 194.14 177.67Z"
            fill="white"/>
        <path
            d="M207.92 177.67C208.583 177.67 209.12 177.133 209.12 176.47C209.12 175.807 208.583 175.27 207.92 175.27C207.257 175.27 206.72 175.807 206.72 176.47C206.72 177.133 207.257 177.67 207.92 177.67Z"
            fill="white"/>
        <path
            d="M221.7 177.67C222.363 177.67 222.9 177.133 222.9 176.47C222.9 175.807 222.363 175.27 221.7 175.27C221.037 175.27 220.5 175.807 220.5 176.47C220.5 177.133 221.037 177.67 221.7 177.67Z"
            fill="white"/>
        <path
            d="M235.48 177.67C236.143 177.67 236.68 177.133 236.68 176.47C236.68 175.807 236.143 175.27 235.48 175.27C234.817 175.27 234.28 175.807 234.28 176.47C234.28 177.133 234.817 177.67 235.48 177.67Z"
            fill="white"/>
        <path
            d="M250.46 176.47C250.46 177.13 249.92 177.67 249.26 177.67C248.6 177.67 248.06 177.13 248.06 176.47C248.06 175.81 248.6 175.27 249.26 175.27C249.93 175.27 250.46 175.81 250.46 176.47Z"
            fill="white"/>
        <path
            d="M263.05 177.67C263.713 177.67 264.25 177.133 264.25 176.47C264.25 175.807 263.713 175.27 263.05 175.27C262.387 175.27 261.85 175.807 261.85 176.47C261.85 177.133 262.387 177.67 263.05 177.67Z"
            fill="white"/>
        <path
            d="M276.83 177.67C277.493 177.67 278.03 177.133 278.03 176.47C278.03 175.807 277.493 175.27 276.83 175.27C276.167 175.27 275.63 175.807 275.63 176.47C275.63 177.133 276.167 177.67 276.83 177.67Z"
            fill="white"/>
    </g>
</svg>
